<svg width="213" height="54" viewBox="0 0 213 54" fill="none" xmlns="http://www.w3.org/2000/svg">
<path d="M56.9167 26.2982H71.2513L70.8439 43.0678H67.4634L66.9673 37.6593C65.1048 41.7777 61.5589 43.834 56.3299 43.834C51.491 43.834 47.6375 42.1878 44.7666 38.8983C41.8957 35.6087 40.4631 31.6327 40.4631 26.9761C40.4631 23.9399 41.0869 21.1687 42.3343 18.6596C43.5818 16.1504 45.4729 14.0998 48.0134 12.5048C50.5511 10.9127 53.5359 10.1152 56.9622 10.1152C60.8102 10.1152 63.9202 11.1007 66.2927 13.0687C68.6652 15.0368 70.2744 17.5688 71.1171 20.6647H65.6174C64.3243 16.6972 61.4392 14.7149 56.9622 14.7149C53.4762 14.7149 50.7647 15.8941 48.8252 18.2523C46.8884 20.6105 45.9173 23.5184 45.9173 26.9761C45.9173 30.4336 46.8714 33.3387 48.7796 35.6998C50.6878 38.0581 53.3252 39.24 56.6916 39.24C59.3974 39.24 61.6733 38.4824 63.5213 36.9643C65.37 35.4463 66.4124 33.2903 66.6545 30.4963L56.9167 30.5419V26.2982Z" fill="black"/>
<path d="M94.1469 40.2942C91.8941 42.5642 89.0236 43.6977 85.5373 43.6977C82.0509 43.6977 79.1804 42.5642 76.9276 40.2942C74.6748 38.0271 73.5464 35.0736 73.5464 31.4366C73.5464 27.7995 74.6748 24.8403 76.9276 22.5562C79.1804 20.272 82.0509 19.1299 85.5373 19.1299C89.0236 19.1299 91.8941 20.272 94.1469 22.5562C96.3997 24.8403 97.5281 27.7995 97.5281 31.4366C97.5281 35.0736 96.3997 38.0271 94.1469 40.2942ZM80.6897 37.2069C81.9656 38.7107 83.5808 39.4597 85.5346 39.4597C87.4884 39.4597 89.103 38.7078 90.3788 37.2069C91.6547 35.7031 92.2956 33.7806 92.2956 31.4366C92.2956 29.0926 91.658 27.1701 90.3788 25.6663C89.1003 24.1625 87.4851 23.4134 85.5346 23.4134C83.6119 23.4134 82.0026 24.1653 80.7095 25.6663C79.4165 27.1701 78.7703 29.0926 78.7703 31.4366C78.7703 33.7806 79.4112 35.7059 80.6897 37.2069Z" fill="black"/>
<path d="M99.9575 10.8809H105.187V43.0674H99.9575V10.8809Z" fill="black"/>
<path d="M131.258 10.8809V43.0674H125.849V38.8294H125.804C125.291 40.3019 124.391 41.4895 123.098 42.3895C121.805 43.2924 120.199 43.7424 118.273 43.7424C115.177 43.7424 112.637 42.586 110.655 40.2705C108.672 37.9579 107.678 34.9816 107.678 31.3446C107.678 27.7388 108.661 24.8025 110.632 22.5325C112.6 20.2626 115.146 19.129 118.273 19.129C120.167 19.129 121.791 19.6018 123.141 20.5502C124.493 21.4958 125.394 22.6464 125.847 23.9993V10.8809H131.258ZM119.584 39.4161C121.776 39.4161 123.431 38.6728 124.542 37.186C125.653 35.6993 126.211 33.754 126.211 31.3474V31.0768C126.151 28.824 125.527 26.9813 124.34 25.5544C123.152 24.1274 121.569 23.4126 119.584 23.4126C117.57 23.4126 115.955 24.173 114.739 25.6882C113.523 27.2063 112.913 29.0917 112.913 31.3446C112.913 33.6601 113.514 35.5825 114.716 37.1149C115.918 38.6499 117.539 39.4161 119.584 39.4161Z" fill="black"/>
<path d="M156.367 35.5403C155.826 38.1549 154.615 40.1685 152.739 41.5811C150.862 42.9938 148.509 43.7001 145.683 43.7001C142.137 43.7001 139.207 42.5666 136.894 40.2966C134.579 38.0295 133.423 35.076 133.423 31.439C133.423 27.7421 134.579 24.7687 136.894 22.513C139.207 20.2602 142.137 19.1323 145.683 19.1323C148.537 19.1323 150.904 19.8615 152.784 21.3197C154.661 22.7779 155.826 24.7232 156.279 27.1583H151.274C150.343 24.5751 148.449 23.282 145.595 23.282C143.582 23.282 141.907 24.0254 140.569 25.5121C139.23 26.9988 138.563 28.9754 138.563 31.439C138.563 33.8742 139.233 35.8336 140.569 37.3232C141.904 38.8099 143.582 39.5533 145.595 39.5533C148.631 39.5533 150.554 38.2175 151.366 35.5403H156.367Z" fill="black"/>
<path d="M178.149 37.7016C178.149 40.2564 178.3 42.045 178.599 43.0674H173.279C173.128 42.2871 173.054 41.2504 173.054 39.9573V39.2823H173.008C172.527 40.5155 171.683 41.5522 170.485 42.3924C169.282 43.2326 167.659 43.6542 165.617 43.6542C163.093 43.6542 161.094 42.9791 159.622 41.6263C158.149 40.2734 157.415 38.6358 157.415 36.7133C157.415 35.9016 157.534 35.1582 157.776 34.4832C158.016 33.8082 158.317 33.2357 158.679 32.7687C159.041 32.3044 159.519 31.8829 160.12 31.5069C160.721 31.131 161.277 30.8376 161.789 30.6269C162.299 30.4161 162.931 30.2225 163.683 30.0402C164.435 29.8607 165.042 29.7411 165.509 29.6784C165.973 29.6186 166.56 29.536 167.266 29.4307C167.973 29.3253 168.445 29.2598 168.687 29.2285C170.339 28.9579 171.476 28.6417 172.091 28.2829C172.706 27.9212 173.013 27.2775 173.013 26.3433C173.013 25.3522 172.615 24.5718 171.82 23.9994C171.023 23.4297 169.921 23.142 168.508 23.142C167.215 23.142 166.164 23.4724 165.352 24.1332C164.541 24.794 164.105 25.711 164.045 26.8816H158.95C159.069 24.7769 159.949 22.9512 161.587 21.4047C163.224 19.8582 165.5 19.0835 168.417 19.0835C174.908 19.0835 178.155 22.299 178.155 28.73V37.7016H178.149ZM173.144 32.3386V29.9035C172.843 30.6554 172.273 31.2848 171.433 31.7975C170.59 32.3101 169.268 32.7288 167.465 33.0591C165.782 33.3611 164.549 33.7798 163.769 34.3209C162.986 34.862 162.595 35.6282 162.595 36.6193C162.595 37.5506 162.986 38.3168 163.769 38.9177C164.549 39.5187 165.6 39.8206 166.924 39.8206C168.667 39.8206 170.14 39.1826 171.342 37.9038C172.544 36.6278 173.144 34.7709 173.144 32.3386Z" fill="black"/>
<path d="M194.093 26.748C193.913 25.5461 193.401 24.6375 192.561 24.0195C191.717 23.4043 190.727 23.0967 189.584 23.0967C188.562 23.0967 187.676 23.3758 186.924 23.9312C186.172 24.4866 185.796 25.1702 185.796 25.9819C185.796 26.523 185.939 26.9901 186.224 27.3803C186.508 27.7705 187.004 28.1179 187.71 28.417C188.417 28.7189 189.063 28.9439 189.65 29.092C190.236 29.2429 191.159 29.4679 192.421 29.767C197.138 30.8208 199.498 33.0138 199.498 36.349C199.498 38.6018 198.567 40.3904 196.704 41.712C194.842 43.0364 192.572 43.6943 189.898 43.6943C187.283 43.6943 185.053 43.0563 183.204 41.7775C181.356 40.5015 180.311 38.5534 180.072 35.9389H185.255C185.705 38.4338 187.283 39.6812 189.988 39.6812C191.191 39.6812 192.205 39.425 193.03 38.9151C193.856 38.4053 194.269 37.6392 194.269 36.6167C194.269 35.6541 193.88 34.9648 193.096 34.5433C192.313 34.1218 190.963 33.686 189.037 33.236C188.676 33.1448 188.405 33.0851 188.226 33.0565C183.236 31.9145 180.744 29.6303 180.744 26.204C180.744 24.1306 181.616 22.4331 183.358 21.1087C185.101 19.7872 187.206 19.1265 189.67 19.1265C192.284 19.1265 194.432 19.7787 196.115 21.086C197.798 22.3932 198.775 24.2787 199.046 26.7423H194.093V26.748Z" fill="black"/>
<path d="M212.905 23.8204H208.351V35.0448C208.351 37.7192 209.237 39.0578 211.011 39.0578H212.409V43.0708H209.928C205.42 43.0708 203.167 40.6072 203.167 35.6771V23.8204H199.561V19.7618H203.167V14.5327L208.171 12.0093H208.351V19.7618H212.905V23.8204Z" fill="black"/>
<path fill-rule="evenodd" clip-rule="evenodd" d="M23.6037 26.973C23.6037 13.9363 13.0368 3.36934 0 3.36934V0C14.8976 0 26.9731 12.0755 26.9731 26.973C26.9731 41.8705 14.8976 53.9461 0 53.9461V50.5767C13.0368 50.5767 23.6037 40.0098 23.6037 26.973Z" fill="#FF4200"/>
<path fill-rule="evenodd" clip-rule="evenodd" d="M13.4873 26.9727C13.4873 19.524 7.44877 13.4855 0 13.4855V10.1162C9.3096 10.1162 16.8566 17.6632 16.8566 26.9727C16.8566 36.2819 9.31 43.8322 0 43.8322V40.4628C7.44837 40.4628 13.4873 34.4219 13.4873 26.9727Z" fill="#FF4200"/>
</svg>
