<svg width="119" height="22" viewBox="0 0 119 22" fill="none" xmlns="http://www.w3.org/2000/svg">
<g clip-path="url(#clip0_1_681)">
<path d="M11.7375 21.9921C17.8851 21.9921 22.8687 17.0708 22.8687 11.0001C22.8687 4.92935 17.8851 0.00805664 11.7375 0.00805664C5.59001 0.00805664 0.606445 4.92935 0.606445 11.0001C0.606445 17.0708 5.59001 21.9921 11.7375 21.9921Z" fill="#282850"/>
<path d="M8.0271 7.33594H15.4478V14.6639H8.0271V7.33594Z" fill="#8886FF"/>
<path d="M8.0271 7.33594H15.4478V14.6639H8.0271V7.33594Z" fill="#8886FF"/>
<path fill-rule="evenodd" clip-rule="evenodd" d="M12.7681 21.9411C18.4367 21.4322 22.8685 16.7199 22.8685 11C22.8685 5.26986 18.4367 0.567727 12.7681 0.0588379V21.9411Z" fill="#8886FF"/>
<path d="M31.0623 16.4043C30.1141 15.8751 29.3411 15.0914 28.8258 14.1448C28.3104 13.1576 28.0425 12.0584 28.0425 10.949C28.0425 9.83964 28.3104 8.74044 28.8258 7.7532C29.3411 6.80666 30.1141 6.02297 31.0623 5.49373C32.0724 4.93395 33.2164 4.65915 34.381 4.67951C35.3808 4.66933 36.3702 4.87289 37.2772 5.26982C38.1223 5.63622 38.8644 6.21635 39.4106 6.94915C39.9569 7.6616 40.2764 8.51653 40.3485 9.41218H37.0298C36.9371 8.8524 36.6176 8.34351 36.1538 8.01782C35.6693 7.65142 35.0819 7.45804 34.4738 7.45804C33.5462 7.45804 32.8144 7.78373 32.2785 8.43511C31.7425 9.08649 31.4746 9.93124 31.4746 10.9592C31.4746 11.9872 31.7425 12.8217 32.2888 13.4629C32.835 14.1041 33.5771 14.4298 34.5253 14.4298C35.1231 14.44 35.7003 14.2568 36.1847 13.9108C36.6485 13.5851 36.968 13.0965 37.0917 12.5571H40.4413C40.3279 13.4324 39.9775 14.2568 39.4209 14.9489C38.8438 15.6715 38.1017 16.2516 37.2566 16.6282C36.3496 17.0353 35.3705 17.2389 34.3707 17.2287C33.2164 17.2491 32.0724 16.9641 31.0623 16.4043ZM44.4506 16.4043C43.4817 15.8852 42.6881 15.1117 42.1419 14.1652C41.5956 13.178 41.307 12.0686 41.307 10.949C41.307 9.81929 41.5956 8.72009 42.1419 7.73284C42.6881 6.78631 43.4817 6.0128 44.4506 5.49373C45.4709 4.94413 46.6252 4.66933 47.7899 4.68969C48.9545 4.66933 50.1089 4.95431 51.1395 5.49373C52.1083 6.0128 52.9122 6.78631 53.4585 7.73284C54.0047 8.72009 54.2933 9.82947 54.2933 10.949C54.2933 12.0788 54.0047 13.178 53.4585 14.1652C52.9122 15.1117 52.1083 15.8852 51.1292 16.4043C50.0986 16.9539 48.9545 17.2287 47.7796 17.2084C46.6252 17.2287 45.4709 16.9539 44.4506 16.4043ZM50.0882 13.4528C50.6757 12.8116 50.9643 11.977 50.9643 10.949C50.9643 9.92107 50.6757 9.07631 50.0882 8.42493C49.7997 8.1196 49.4389 7.87533 49.0473 7.70231C48.6556 7.53946 48.2331 7.44786 47.8002 7.44786C47.3776 7.44786 46.9447 7.52929 46.5531 7.70231C46.1614 7.86515 45.8007 8.10942 45.5121 8.41475C44.9247 9.05595 44.6361 9.90071 44.6361 10.949C44.6361 11.9973 44.9247 12.8319 45.5121 13.4528C46.0996 14.094 46.8623 14.4196 47.8002 14.4196C48.2228 14.4298 48.6556 14.3586 49.0473 14.1856C49.4389 14.0227 49.7894 13.7683 50.0882 13.4528ZM66.5169 20.7909C65.6718 21.5644 64.5484 21.9512 63.1467 21.9512H56.9937V19.3864H62.6623C62.9096 19.3966 63.157 19.3457 63.3837 19.2541C63.6105 19.1625 63.8166 19.02 63.9918 18.8368C64.3526 18.4399 64.5381 17.9208 64.5175 17.3916V15.7835C64.167 16.2618 63.6826 16.6282 63.1261 16.842C62.4871 17.1066 61.7965 17.2389 61.0957 17.2389C59.8692 17.2389 58.8282 16.9844 57.9522 16.4654C57.0761 15.9463 56.3753 15.183 55.9527 14.267C55.4889 13.2288 55.2518 12.0991 55.2518 10.9592C55.2518 9.81929 55.4889 8.69973 55.9527 7.65142C56.3753 6.7456 57.0658 5.98226 57.9419 5.45302C58.8076 4.93395 59.8383 4.67951 61.0441 4.67951C61.7347 4.66933 62.4252 4.80164 63.0642 5.06626C63.6311 5.29017 64.1155 5.6464 64.4968 6.12475V4.86271H67.795V17.7172C67.7846 18.9895 67.3621 20.0174 66.5169 20.7909ZM63.8578 13.4731C64.4247 12.8421 64.7133 11.9973 64.7133 10.949C64.7133 9.89053 64.4247 9.0356 63.8578 8.40458C63.291 7.77355 62.5283 7.44786 61.5904 7.44786C60.6628 7.44786 59.9207 7.76338 59.3539 8.40458C58.787 9.0356 58.5087 9.89053 58.5087 10.949C58.5087 12.0075 58.787 12.8523 59.3539 13.4833C59.9207 14.1143 60.6628 14.4196 61.5904 14.4196C62.5283 14.4196 63.2807 14.1041 63.8578 13.4731ZM73.041 4.87289V6.61329C73.3811 6.00262 73.9067 5.50391 74.5458 5.1884C75.2466 4.84235 76.0196 4.66933 76.8029 4.67951C77.648 4.65915 78.4829 4.87289 79.2043 5.29017C79.8949 5.69729 80.4514 6.27742 80.8122 6.97969C81.2038 7.7532 81.4099 8.60813 81.3893 9.47324V17.0252H78.0912V10.1755C78.1118 9.4936 77.8748 8.82187 77.4213 8.3028C77.2049 8.05853 76.9369 7.87533 76.6277 7.74302C76.3288 7.62089 75.999 7.55982 75.6692 7.57C75.3084 7.55982 74.958 7.62089 74.6282 7.7532C74.2984 7.88551 73.9995 8.08906 73.7625 8.35369C73.278 8.87275 73.0307 9.54449 73.0307 10.3689V17.0252H69.7326V4.87289H73.041ZM86.5426 4.87289V17.0252H83.2445V4.87289H86.5426ZM88.5215 14.4705H94.0664C94.1592 14.4807 94.2622 14.4604 94.3447 14.4298C94.4375 14.3993 94.5199 14.3484 94.5817 14.2772C94.6539 14.2161 94.7054 14.1347 94.7363 14.0431C94.7776 13.9515 94.7879 13.8599 94.7879 13.7683C94.7879 13.636 94.7466 13.5138 94.6642 13.4019C94.5817 13.2899 94.4684 13.1983 94.3447 13.1372L89.9644 10.9999C89.3872 10.7149 88.9028 10.2976 88.5318 9.77858C88.1814 9.27987 87.9958 8.68955 88.0061 8.07889C88.0061 7.50893 88.1504 6.95933 88.4287 6.46062C88.707 5.97209 89.109 5.56497 89.6037 5.29017C90.0984 5.0052 90.6549 4.86271 91.2321 4.87289H97.5294V7.43769H91.8814C91.7062 7.43769 91.5516 7.49875 91.4279 7.62089C91.3661 7.67178 91.3146 7.74302 91.2836 7.81426C91.2527 7.88551 91.2321 7.96693 91.2321 8.04835C91.2321 8.18066 91.2733 8.3028 91.3455 8.41475C91.4279 8.53689 91.5413 8.62849 91.6753 8.67938L96.1071 10.8065C96.6843 11.0813 97.1687 11.5088 97.5294 12.038C97.8799 12.5469 98.0654 13.1576 98.0654 13.7784C98.0654 14.3484 97.9108 14.9184 97.6119 15.4069C97.3233 15.9056 96.9007 16.3229 96.406 16.618C95.901 16.9132 95.3341 17.076 94.7467 17.0659H88.5215V14.4705ZM102.817 4.87289V6.63364C103.157 6.04333 103.641 5.5548 104.229 5.20875C104.868 4.84235 105.589 4.65915 106.331 4.67951C107.29 4.67951 108.094 4.87289 108.722 5.25964C109.361 5.6464 109.846 6.22653 110.114 6.91862C110.423 6.2876 110.938 5.75835 111.691 5.33089C112.453 4.89324 113.329 4.66933 114.216 4.67951C115.02 4.66933 115.813 4.86271 116.504 5.25964C117.163 5.63622 117.699 6.18582 118.05 6.84737C118.421 7.53946 118.606 8.31298 118.596 9.08649V17.0252H115.319V10.1043C115.319 9.30022 115.112 8.64884 114.71 8.16031C114.515 7.92622 114.278 7.73284 113.989 7.60053C113.711 7.46822 113.402 7.40715 113.092 7.41733C112.763 7.40715 112.433 7.45804 112.134 7.59035C111.835 7.72266 111.567 7.90586 111.351 8.15013C110.918 8.63866 110.701 9.29004 110.701 10.0941V17.015H107.403V10.0941C107.403 9.29004 107.197 8.63866 106.795 8.15013C106.599 7.91604 106.362 7.72266 106.074 7.59035C105.795 7.45804 105.486 7.39698 105.177 7.40715C104.847 7.39698 104.528 7.45804 104.229 7.58018C103.93 7.70231 103.662 7.89569 103.445 8.13995C103.002 8.62849 102.786 9.27987 102.786 10.0839V17.0048H99.4877V4.87289H102.817Z" fill="#282850"/>
</g>
<defs>
<clipPath id="clip0_1_681">
<rect width="118" height="22" fill="white" transform="translate(0.606445)"/>
</clipPath>
</defs>
</svg>
