<svg width="348" height="219" viewBox="0 0 348 219" fill="none" xmlns="http://www.w3.org/2000/svg">
<g clip-path="url(#clip0_1_1272)">
<rect width="348" height="219" fill="white"/>
<g filter="url(#filter0_b_1_1272)">
<g filter="url(#filter1_b_1_1272)">
<rect width="348.367" height="218.583" rx="14.6373" fill="white" fill-opacity="0.69"/>
</g>
<rect x="19.1008" y="15.613" width="309.405" height="34.1537" rx="17.0768" fill="#FDF9FA"/>
<path d="M34.0154 30.5021V29.5124H38.6782V30.5021H36.9401V35.1899H35.7536V30.5021H34.0154ZM39.424 35.1899V30.9318H40.6049V35.1899H39.424ZM40.0172 30.3829C39.8416 30.3829 39.691 30.3247 39.5654 30.2083C39.4415 30.09 39.3796 29.9486 39.3796 29.7841C39.3796 29.6215 39.4415 29.482 39.5654 29.3655C39.691 29.2472 39.8416 29.1881 40.0172 29.1881C40.1928 29.1881 40.3425 29.2472 40.4663 29.3655C40.592 29.482 40.6548 29.6215 40.6548 29.7841C40.6548 29.9486 40.592 30.09 40.4663 30.2083C40.3425 30.3247 40.1928 30.3829 40.0172 30.3829ZM43.8158 30.9318V31.8189H41.2516V30.9318H43.8158ZM41.8337 29.9116H43.0147V33.8815C43.0147 33.9905 43.0313 34.0755 43.0646 34.1365C43.0978 34.1956 43.144 34.2372 43.2032 34.2612C43.2642 34.2853 43.3344 34.2973 43.4139 34.2973C43.4693 34.2973 43.5248 34.2927 43.5802 34.2834C43.6357 34.2723 43.6782 34.264 43.7077 34.2585L43.8935 35.1373C43.8343 35.1558 43.7512 35.177 43.644 35.201C43.5368 35.2269 43.4065 35.2426 43.2531 35.2482C42.9685 35.2592 42.719 35.2214 42.5046 35.1345C42.2921 35.0476 42.1266 34.9127 42.0084 34.7298C41.8901 34.5468 41.8319 34.3158 41.8337 34.0367V29.9116ZM45.8576 29.5124V35.1899H44.6766V29.5124H45.8576ZM48.7441 35.2731C48.3061 35.2731 47.9291 35.1844 47.6131 35.007C47.2989 34.8277 47.0568 34.5745 46.8868 34.2474C46.7167 33.9184 46.6317 33.5294 46.6317 33.0803C46.6317 32.6423 46.7167 32.2579 46.8868 31.927C47.0568 31.5962 47.2961 31.3384 47.6048 31.1536C47.9153 30.9688 48.2793 30.8764 48.697 30.8764C48.9779 30.8764 49.2395 30.9217 49.4816 31.0122C49.7255 31.1009 49.938 31.2349 50.1192 31.4142C50.3021 31.5935 50.4444 31.8189 50.5461 32.0906C50.6477 32.3604 50.6986 32.6765 50.6986 33.0387V33.3631H47.103V32.6312H49.5869C49.5869 32.4612 49.5499 32.3105 49.476 32.1793C49.4021 32.0481 49.2995 31.9455 49.1683 31.8716C49.0389 31.7958 48.8883 31.7579 48.7164 31.7579C48.5372 31.7579 48.3782 31.7995 48.2396 31.8827C48.1028 31.964 47.9957 32.074 47.918 32.2126C47.8404 32.3493 47.8007 32.5018 47.7988 32.67V33.3658C47.7988 33.5765 47.8376 33.7586 47.9153 33.912C47.9947 34.0653 48.1065 34.1836 48.2507 34.2668C48.3948 34.35 48.5658 34.3915 48.7636 34.3915C48.8948 34.3915 49.0149 34.3731 49.1239 34.3361C49.233 34.2991 49.3263 34.2437 49.4039 34.1698C49.4816 34.0958 49.5407 34.0053 49.5814 33.8981L50.6736 33.9702C50.6182 34.2326 50.5045 34.4618 50.3326 34.6577C50.1626 34.8517 49.9427 35.0033 49.6728 35.1123C49.4049 35.2195 49.0953 35.2731 48.7441 35.2731ZM52.1595 35.262C51.9766 35.262 51.8195 35.1973 51.6882 35.068C51.5589 34.9367 51.4942 34.7797 51.4942 34.5967C51.4942 34.4156 51.5589 34.2603 51.6882 34.131C51.8195 34.0016 51.9766 33.9369 52.1595 33.9369C52.3369 33.9369 52.4922 34.0016 52.6252 34.131C52.7583 34.2603 52.8248 34.4156 52.8248 34.5967C52.8248 34.7187 52.7934 34.8305 52.7306 34.9321C52.6696 35.0319 52.5892 35.1123 52.4894 35.1733C52.3896 35.2324 52.2796 35.262 52.1595 35.262ZM52.1595 32.2791C51.9766 32.2791 51.8195 32.2144 51.6882 32.0851C51.5589 31.9557 51.4942 31.7986 51.4942 31.6138C51.4942 31.4327 51.5589 31.2783 51.6882 31.1508C51.8195 31.0215 51.9766 30.9568 52.1595 30.9568C52.3369 30.9568 52.4922 31.0215 52.6252 31.1508C52.7583 31.2783 52.8248 31.4327 52.8248 31.6138C52.8248 31.7376 52.7934 31.8503 52.7306 31.952C52.6696 32.0518 52.5892 32.1313 52.4894 32.1904C52.3896 32.2495 52.2796 32.2791 52.1595 32.2791Z" fill="#555555"/>
<path d="M62.1977 29.5124H63.5422L64.8368 31.9575H64.8922L66.1869 29.5124H67.5314L65.4605 33.1829V35.1899H64.2685V33.1829L62.1977 29.5124ZM69.1968 35.2731C68.7662 35.2731 68.3938 35.1816 68.0796 34.9987C67.7673 34.8138 67.5261 34.557 67.356 34.228C67.186 33.8972 67.101 33.5137 67.101 33.0775C67.101 32.6377 67.186 32.2532 67.356 31.9243C67.5261 31.5935 67.7673 31.3366 68.0796 31.1536C68.3938 30.9688 68.7662 30.8764 69.1968 30.8764C69.6274 30.8764 69.9989 30.9688 70.3112 31.1536C70.6254 31.3366 70.8675 31.5935 71.0375 31.9243C71.2076 32.2532 71.2926 32.6377 71.2926 33.0775C71.2926 33.5137 71.2076 33.8972 71.0375 34.228C70.8675 34.557 70.6254 34.8138 70.3112 34.9987C69.9989 35.1816 69.6274 35.2731 69.1968 35.2731ZM69.2023 34.3583C69.3982 34.3583 69.5618 34.3028 69.693 34.1919C69.8242 34.0792 69.9231 33.9258 69.9897 33.7318C70.058 33.5377 70.0922 33.3168 70.0922 33.0692C70.0922 32.8215 70.058 32.6007 69.9897 32.4066C69.9231 32.2126 69.8242 32.0592 69.693 31.9465C69.5618 31.8337 69.3982 31.7773 69.2023 31.7773C69.0046 31.7773 68.8383 31.8337 68.7033 31.9465C68.5703 32.0592 68.4696 32.2126 68.4012 32.4066C68.3346 32.6007 68.3014 32.8215 68.3014 33.0692C68.3014 33.3168 68.3346 33.5377 68.4012 33.7318C68.4696 33.9258 68.5703 34.0792 68.7033 34.1919C68.8383 34.3028 69.0046 34.3583 69.2023 34.3583ZM74.7911 33.3769V30.9318H75.9721V35.1899H74.8383V34.4165H74.7939C74.6978 34.666 74.5379 34.8665 74.3143 35.0181C74.0925 35.1696 73.8218 35.2454 73.502 35.2454C73.2174 35.2454 72.967 35.1807 72.7508 35.0513C72.5345 34.922 72.3654 34.7381 72.2435 34.4997C72.1233 34.2612 72.0623 33.9757 72.0605 33.643V30.9318H73.2415V33.4324C73.2433 33.6837 73.3108 33.8824 73.4438 34.0284C73.5769 34.1744 73.7552 34.2474 73.9789 34.2474C74.1212 34.2474 74.2542 34.215 74.3781 34.1504C74.5019 34.0838 74.6017 33.9859 74.6775 33.8565C74.7551 33.7271 74.793 33.5673 74.7911 33.3769ZM76.9167 35.1899V30.9318H78.0616V31.6748H78.106C78.1836 31.4105 78.3139 31.2109 78.4969 31.076C78.6798 30.9392 78.8905 30.8708 79.1289 30.8708C79.1881 30.8708 79.2518 30.8745 79.3202 30.8819C79.3886 30.8893 79.4487 30.8995 79.5004 30.9124V31.9603C79.445 31.9437 79.3683 31.9289 79.2703 31.916C79.1724 31.903 79.0827 31.8966 79.0014 31.8966C78.8277 31.8966 78.6725 31.9344 78.5357 32.0102C78.4008 32.0841 78.2936 32.1876 78.2141 32.3207C78.1365 32.4538 78.0977 32.6072 78.0977 32.7809V35.1899H76.9167ZM84.1827 30.9318V31.8189H81.6184V30.9318H84.1827ZM82.2006 29.9116H83.3815V33.8815C83.3815 33.9905 83.3982 34.0755 83.4314 34.1365C83.4647 34.1956 83.5109 34.2372 83.57 34.2612C83.631 34.2853 83.7012 34.2973 83.7807 34.2973C83.8362 34.2973 83.8916 34.2927 83.9471 34.2834C84.0025 34.2723 84.045 34.264 84.0746 34.2585L84.2603 35.1373C84.2012 35.1558 84.118 35.177 84.0108 35.201C83.9036 35.2269 83.7733 35.2426 83.6199 35.2482C83.3353 35.2592 83.0858 35.2214 82.8714 35.1345C82.6589 35.0476 82.4935 34.9127 82.3752 34.7298C82.2569 34.5468 82.1987 34.3158 82.2006 34.0367V29.9116ZM84.952 35.1899V30.9318H86.1329V35.1899H84.952ZM85.5452 30.3829C85.3697 30.3829 85.219 30.3247 85.0934 30.2083C84.9695 30.09 84.9076 29.9486 84.9076 29.7841C84.9076 29.6215 84.9695 29.482 85.0934 29.3655C85.219 29.2472 85.3697 29.1881 85.5452 29.1881C85.7208 29.1881 85.8705 29.2472 85.9943 29.3655C86.12 29.482 86.1828 29.6215 86.1828 29.7841C86.1828 29.9486 86.12 30.09 85.9943 30.2083C85.8705 30.3247 85.7208 30.3829 85.5452 30.3829ZM89.3439 30.9318V31.8189H86.7796V30.9318H89.3439ZM87.3617 29.9116H88.5427V33.8815C88.5427 33.9905 88.5593 34.0755 88.5926 34.1365C88.6259 34.1956 88.6721 34.2372 88.7312 34.2612C88.7922 34.2853 88.8624 34.2973 88.9419 34.2973C88.9973 34.2973 89.0528 34.2927 89.1082 34.2834C89.1637 34.2723 89.2062 34.264 89.2357 34.2585L89.4215 35.1373C89.3623 35.1558 89.2792 35.177 89.172 35.201C89.0648 35.2269 88.9345 35.2426 88.7811 35.2482C88.4965 35.2592 88.247 35.2214 88.0326 35.1345C87.8201 35.0476 87.6547 34.9127 87.5364 34.7298C87.4181 34.5468 87.3599 34.3158 87.3617 34.0367V29.9116ZM91.3856 29.5124V35.1899H90.2046V29.5124H91.3856ZM94.2722 35.2731C93.8342 35.2731 93.4571 35.1844 93.1411 35.007C92.8269 34.8277 92.5848 34.5745 92.4148 34.2474C92.2447 33.9184 92.1597 33.5294 92.1597 33.0803C92.1597 32.6423 92.2447 32.2579 92.4148 31.927C92.5848 31.5962 92.8241 31.3384 93.1328 31.1536C93.4433 30.9688 93.8074 30.8764 94.225 30.8764C94.5059 30.8764 94.7675 30.9217 95.0096 31.0122C95.2535 31.1009 95.4661 31.2349 95.6472 31.4142C95.8301 31.5935 95.9725 31.8189 96.0741 32.0906C96.1757 32.3604 96.2266 32.6765 96.2266 33.0387V33.3631H92.631V32.6312H95.1149C95.1149 32.4612 95.078 32.3105 95.004 32.1793C94.9301 32.0481 94.8275 31.9455 94.6963 31.8716C94.5669 31.7958 94.4163 31.7579 94.2444 31.7579C94.0652 31.7579 93.9062 31.7995 93.7676 31.8827C93.6309 31.964 93.5237 32.074 93.446 32.2126C93.3684 32.3493 93.3287 32.5018 93.3268 32.67V33.3658C93.3268 33.5765 93.3656 33.7586 93.4433 33.912C93.5227 34.0653 93.6346 34.1836 93.7787 34.2668C93.9229 34.35 94.0938 34.3915 94.2916 34.3915C94.4228 34.3915 94.5429 34.3731 94.652 34.3361C94.761 34.2991 94.8543 34.2437 94.9319 34.1698C95.0096 34.0958 95.0687 34.0053 95.1094 33.8981L96.2016 33.9702C96.1462 34.2326 96.0325 34.4618 95.8606 34.6577C95.6906 34.8517 95.4707 35.0033 95.2009 35.1123C94.9329 35.2195 94.6233 35.2731 94.2722 35.2731ZM100.722 36.8754C100.34 36.8754 100.012 36.8228 99.7383 36.7174C99.4666 36.6139 99.2504 36.4726 99.0896 36.2933C98.9288 36.114 98.8244 35.9126 98.7763 35.6889L99.8686 35.542C99.9018 35.627 99.9545 35.7065 100.027 35.7804C100.099 35.8543 100.194 35.9135 100.312 35.9578C100.432 36.004 100.578 36.0271 100.75 36.0271C101.007 36.0271 101.219 35.9643 101.385 35.8386C101.553 35.7148 101.637 35.5069 101.637 35.2149V34.4359H101.587C101.536 34.5542 101.458 34.666 101.354 34.7713C101.251 34.8767 101.118 34.9626 100.955 35.0292C100.793 35.0957 100.599 35.129 100.373 35.129C100.053 35.129 99.7623 35.055 99.4999 34.9072C99.2393 34.7575 99.0314 34.5292 98.8761 34.2224C98.7227 33.9138 98.646 33.5238 98.646 33.0526C98.646 32.5702 98.7246 32.1673 98.8817 31.8439C99.0388 31.5205 99.2476 31.2783 99.5082 31.1176C99.7706 30.9568 100.058 30.8764 100.37 30.8764C100.609 30.8764 100.808 30.917 100.969 30.9984C101.13 31.0778 101.259 31.1776 101.357 31.2978C101.457 31.416 101.534 31.5325 101.587 31.6471H101.632V30.9318H102.804V35.2315C102.804 35.5938 102.716 35.8969 102.538 36.1408C102.361 36.3848 102.115 36.5677 101.801 36.6897C101.488 36.8135 101.129 36.8754 100.722 36.8754ZM100.747 34.2418C100.938 34.2418 101.099 34.1947 101.23 34.1005C101.363 34.0044 101.464 33.8676 101.535 33.6902C101.607 33.5109 101.643 33.2965 101.643 33.047C101.643 32.7975 101.608 32.5813 101.537 32.3983C101.467 32.2135 101.366 32.0703 101.232 31.9686C101.099 31.867 100.938 31.8162 100.747 31.8162C100.553 31.8162 100.39 31.8688 100.257 31.9742C100.124 32.0777 100.023 32.2218 99.9545 32.4066C99.8861 32.5915 99.8519 32.8049 99.8519 33.047C99.8519 33.2928 99.8861 33.5054 99.9545 33.6846C100.025 33.8621 100.125 33.9997 100.257 34.0977C100.39 34.1938 100.553 34.2418 100.747 34.2418ZM105.668 35.2731C105.237 35.2731 104.865 35.1816 104.551 34.9987C104.238 34.8138 103.997 34.557 103.827 34.228C103.657 33.8972 103.572 33.5137 103.572 33.0775C103.572 32.6377 103.657 32.2532 103.827 31.9243C103.997 31.5935 104.238 31.3366 104.551 31.1536C104.865 30.9688 105.237 30.8764 105.668 30.8764C106.099 30.8764 106.47 30.9688 106.782 31.1536C107.097 31.3366 107.339 31.5935 107.509 31.9243C107.679 32.2532 107.764 32.6377 107.764 33.0775C107.764 33.5137 107.679 33.8972 107.509 34.228C107.339 34.557 107.097 34.8138 106.782 34.9987C106.47 35.1816 106.099 35.2731 105.668 35.2731ZM105.674 34.3583C105.869 34.3583 106.033 34.3028 106.164 34.1919C106.295 34.0792 106.394 33.9258 106.461 33.7318C106.529 33.5377 106.563 33.3168 106.563 33.0692C106.563 32.8215 106.529 32.6007 106.461 32.4066C106.394 32.2126 106.295 32.0592 106.164 31.9465C106.033 31.8337 105.869 31.7773 105.674 31.7773C105.476 31.7773 105.309 31.8337 105.175 31.9465C105.042 32.0592 104.941 32.2126 104.872 32.4066C104.806 32.6007 104.773 32.8215 104.773 33.0692C104.773 33.3168 104.806 33.5377 104.872 33.7318C104.941 33.9258 105.042 34.0792 105.175 34.1919C105.309 34.3028 105.476 34.3583 105.674 34.3583ZM110.472 35.2731C110.034 35.2731 109.657 35.1844 109.341 35.007C109.027 34.8277 108.785 34.5745 108.615 34.2474C108.445 33.9184 108.36 33.5294 108.36 33.0803C108.36 32.6423 108.445 32.2579 108.615 31.927C108.785 31.5962 109.024 31.3384 109.333 31.1536C109.643 30.9688 110.007 30.8764 110.425 30.8764C110.706 30.8764 110.968 30.9217 111.21 31.0122C111.454 31.1009 111.666 31.2349 111.847 31.4142C112.03 31.5935 112.173 31.8189 112.274 32.0906C112.376 32.3604 112.427 32.6765 112.427 33.0387V33.3631H108.831V32.6312H111.315C111.315 32.4612 111.278 32.3105 111.204 32.1793C111.13 32.0481 111.028 31.9455 110.896 31.8716C110.767 31.7958 110.616 31.7579 110.445 31.7579C110.265 31.7579 110.106 31.7995 109.968 31.8827C109.831 31.964 109.724 32.074 109.646 32.2126C109.569 32.3493 109.529 32.5018 109.527 32.67V33.3658C109.527 33.5765 109.566 33.7586 109.643 33.912C109.723 34.0653 109.835 34.1836 109.979 34.2668C110.123 34.35 110.294 34.3915 110.492 34.3915C110.623 34.3915 110.743 34.3731 110.852 34.3361C110.961 34.2991 111.054 34.2437 111.132 34.1698C111.21 34.0958 111.269 34.0053 111.309 33.8981L112.402 33.9702C112.346 34.2326 112.233 34.4618 112.061 34.6577C111.891 34.8517 111.671 35.0033 111.401 35.1123C111.133 35.2195 110.823 35.2731 110.472 35.2731ZM116.74 32.1461L115.659 32.2126C115.641 32.1202 115.601 32.037 115.54 31.9631C115.479 31.8873 115.399 31.8272 115.299 31.7829C115.201 31.7367 115.083 31.7136 114.947 31.7136C114.764 31.7136 114.609 31.7524 114.484 31.83C114.358 31.9058 114.295 32.0074 114.295 32.135C114.295 32.2366 114.336 32.3225 114.417 32.3928C114.498 32.463 114.638 32.5194 114.836 32.5619L115.606 32.7171C116.02 32.8021 116.329 32.9389 116.532 33.1274C116.736 33.3159 116.837 33.5636 116.837 33.8704C116.837 34.1494 116.755 34.3943 116.591 34.605C116.428 34.8157 116.204 34.9802 115.92 35.0985C115.637 35.2149 115.311 35.2731 114.941 35.2731C114.377 35.2731 113.928 35.1558 113.594 34.921C113.261 34.6845 113.066 34.3629 113.009 33.9563L114.17 33.8953C114.206 34.0672 114.291 34.1984 114.425 34.289C114.56 34.3777 114.733 34.422 114.944 34.422C115.151 34.422 115.317 34.3823 115.443 34.3028C115.57 34.2215 115.635 34.1171 115.637 33.9896C115.635 33.8824 115.59 33.7946 115.501 33.7262C115.412 33.656 115.276 33.6024 115.091 33.5654L114.353 33.4185C113.938 33.3353 113.628 33.1912 113.425 32.986C113.223 32.7809 113.123 32.5194 113.123 32.2015C113.123 31.928 113.196 31.6923 113.344 31.4946C113.494 31.2968 113.704 31.1444 113.974 31.0372C114.245 30.93 114.563 30.8764 114.927 30.8764C115.465 30.8764 115.888 30.99 116.197 31.2174C116.507 31.4447 116.689 31.7542 116.74 32.1461ZM120.569 32.7282V35.1899H119.388V29.5124H120.535V31.6831H120.585C120.681 31.4317 120.837 31.2349 121.051 31.0926C121.265 30.9485 121.534 30.8764 121.858 30.8764C122.153 30.8764 122.411 30.9411 122.631 31.0704C122.853 31.198 123.025 31.3818 123.147 31.6221C123.271 31.8605 123.332 32.1461 123.33 32.4787V35.1899H122.149V32.6894C122.151 32.427 122.084 32.2227 121.949 32.0767C121.816 31.9307 121.63 31.8577 121.389 31.8577C121.228 31.8577 121.086 31.8919 120.962 31.9603C120.84 32.0287 120.744 32.1285 120.674 32.2597C120.606 32.3891 120.571 32.5453 120.569 32.7282ZM126.2 35.2731C125.762 35.2731 125.385 35.1844 125.069 35.007C124.754 34.8277 124.512 34.5745 124.342 34.2474C124.172 33.9184 124.087 33.5294 124.087 33.0803C124.087 32.6423 124.172 32.2579 124.342 31.927C124.512 31.5962 124.752 31.3384 125.06 31.1536C125.371 30.9688 125.735 30.8764 126.153 30.8764C126.434 30.8764 126.695 30.9217 126.937 31.0122C127.181 31.1009 127.394 31.2349 127.575 31.4142C127.758 31.5935 127.9 31.8189 128.002 32.0906C128.103 32.3604 128.154 32.6765 128.154 33.0387V33.3631H124.559V32.6312H127.042C127.042 32.4612 127.006 32.3105 126.932 32.1793C126.858 32.0481 126.755 31.9455 126.624 31.8716C126.495 31.7958 126.344 31.7579 126.172 31.7579C125.993 31.7579 125.834 31.7995 125.695 31.8827C125.558 31.964 125.451 32.074 125.374 32.2126C125.296 32.3493 125.256 32.5018 125.254 32.67V33.3658C125.254 33.5765 125.293 33.7586 125.371 33.912C125.45 34.0653 125.562 34.1836 125.706 34.2668C125.85 34.35 126.021 34.3915 126.219 34.3915C126.35 34.3915 126.47 34.3731 126.58 34.3361C126.689 34.2991 126.782 34.2437 126.86 34.1698C126.937 34.0958 126.996 34.0053 127.037 33.8981L128.129 33.9702C128.074 34.2326 127.96 34.4618 127.788 34.6577C127.618 34.8517 127.398 35.0033 127.128 35.1123C126.86 35.2195 126.551 35.2731 126.2 35.2731ZM128.925 35.1899V30.9318H130.07V31.6748H130.114C130.192 31.4105 130.322 31.2109 130.505 31.076C130.688 30.9392 130.899 30.8708 131.137 30.8708C131.196 30.8708 131.26 30.8745 131.328 30.8819C131.397 30.8893 131.457 30.8995 131.509 30.9124V31.9603C131.453 31.9437 131.376 31.9289 131.278 31.916C131.18 31.903 131.091 31.8966 131.01 31.8966C130.836 31.8966 130.681 31.9344 130.544 32.0102C130.409 32.0841 130.302 32.1876 130.222 32.3207C130.145 32.4538 130.106 32.6072 130.106 32.7809V35.1899H128.925ZM133.861 35.2731C133.423 35.2731 133.046 35.1844 132.73 35.007C132.416 34.8277 132.174 34.5745 132.004 34.2474C131.834 33.9184 131.749 33.5294 131.749 33.0803C131.749 32.6423 131.834 32.2579 132.004 31.927C132.174 31.5962 132.413 31.3384 132.722 31.1536C133.033 30.9688 133.397 30.8764 133.814 30.8764C134.095 30.8764 134.357 30.9217 134.599 31.0122C134.843 31.1009 135.055 31.2349 135.236 31.4142C135.419 31.5935 135.562 31.8189 135.663 32.0906C135.765 32.3604 135.816 32.6765 135.816 33.0387V33.3631H132.22V32.6312H134.704C134.704 32.4612 134.667 32.3105 134.593 32.1793C134.519 32.0481 134.417 31.9455 134.286 31.8716C134.156 31.7958 134.006 31.7579 133.834 31.7579C133.654 31.7579 133.496 31.7995 133.357 31.8827C133.22 31.964 133.113 32.074 133.035 32.2126C132.958 32.3493 132.918 32.5018 132.916 32.67V33.3658C132.916 33.5765 132.955 33.7586 133.033 33.912C133.112 34.0653 133.224 34.1836 133.368 34.2668C133.512 34.35 133.683 34.3915 133.881 34.3915C134.012 34.3915 134.132 34.3731 134.241 34.3361C134.35 34.2991 134.444 34.2437 134.521 34.1698C134.599 34.0958 134.658 34.0053 134.699 33.8981L135.791 33.9702C135.735 34.2326 135.622 34.4618 135.45 34.6577C135.28 34.8517 135.06 35.0033 134.79 35.1123C134.522 35.2195 134.213 35.2731 133.861 35.2731Z" fill="#2A2A2A"/>
<rect x="19.1008" y="57.5732" width="309.405" height="34.1537" rx="4.8791" fill="url(#paint0_linear_1_1272)"/>
<path d="M34.2316 77.3315V71.6541H37.9907V72.6437H35.432V73.9966H37.7412V74.9863H35.432V77.3315H34.2316ZM40.3873 77.4147C39.9567 77.4147 39.5843 77.3232 39.2701 77.1403C38.9578 76.9554 38.7166 76.6986 38.5466 76.3696C38.3765 76.0388 38.2915 75.6553 38.2915 75.2191C38.2915 74.7793 38.3765 74.3948 38.5466 74.0659C38.7166 73.7351 38.9578 73.4782 39.2701 73.2952C39.5843 73.1104 39.9567 73.018 40.3873 73.018C40.8179 73.018 41.1894 73.1104 41.5017 73.2952C41.8159 73.4782 42.058 73.7351 42.2281 74.0659C42.3981 74.3948 42.4831 74.7793 42.4831 75.2191C42.4831 75.6553 42.3981 76.0388 42.2281 76.3696C42.058 76.6986 41.8159 76.9554 41.5017 77.1403C41.1894 77.3232 40.8179 77.4147 40.3873 77.4147ZM40.3929 76.4999C40.5888 76.4999 40.7523 76.4444 40.8835 76.3335C41.0148 76.2208 41.1136 76.0674 41.1802 75.8734C41.2485 75.6793 41.2827 75.4585 41.2827 75.2108C41.2827 74.9631 41.2485 74.7423 41.1802 74.5482C41.1136 74.3542 41.0148 74.2008 40.8835 74.0881C40.7523 73.9753 40.5888 73.9189 40.3929 73.9189C40.1951 73.9189 40.0288 73.9753 39.8939 74.0881C39.7608 74.2008 39.6601 74.3542 39.5917 74.5482C39.5252 74.7423 39.4919 74.9631 39.4919 75.2108C39.4919 75.4585 39.5252 75.6793 39.5917 75.8734C39.6601 76.0674 39.7608 76.2208 39.8939 76.3335C40.0288 76.4444 40.1951 76.4999 40.3929 76.4999ZM44.432 74.8698V77.3315H43.251V73.0734H44.3765V73.8247H44.4264C44.5207 73.577 44.6787 73.3811 44.9005 73.237C45.1223 73.091 45.3912 73.018 45.7072 73.018C46.0029 73.018 46.2607 73.0827 46.4806 73.212C46.7006 73.3414 46.8715 73.5262 46.9935 73.7665C47.1155 74.0049 47.1765 74.2895 47.1765 74.6203V77.3315H45.9955V74.831C45.9973 74.5704 45.9308 74.3671 45.7959 74.2211C45.661 74.0733 45.4752 73.9993 45.2387 73.9993C45.0797 73.9993 44.9393 74.0335 44.8173 74.1019C44.6972 74.1703 44.6029 74.2701 44.5345 74.4013C44.468 74.5307 44.4338 74.6869 44.432 74.8698ZM50.3721 73.0734V73.9605H47.8078V73.0734H50.3721ZM48.39 72.0532H49.571V76.0231C49.571 76.1321 49.5876 76.2171 49.6209 76.2781C49.6541 76.3372 49.7003 76.3788 49.7595 76.4029C49.8205 76.4269 49.8907 76.4389 49.9702 76.4389C50.0256 76.4389 50.081 76.4343 50.1365 76.425C50.1919 76.4139 50.2344 76.4056 50.264 76.4001L50.4498 77.2789C50.3906 77.2974 50.3074 77.3186 50.2003 77.3426C50.0931 77.3685 49.9628 77.3842 49.8094 77.3898C49.5248 77.4008 49.2753 77.363 49.0609 77.2761C48.8483 77.1892 48.6829 77.0543 48.5646 76.8714C48.4464 76.6884 48.3882 76.4574 48.39 76.1783V72.0532Z" fill="white"/>
<g filter="url(#filter2_d_1_1272)">
<rect x="182.621" y="63.6721" width="79.0413" height="21.9559" rx="4.8791" fill="white" shape-rendering="crispEdges"/>
<path d="M196.493 73.0599H194.651V74.0435H196.329V75.3394H194.651V77.6501H193.121V71.764H196.493V73.0599ZM198.64 73.6454V75.9015C198.64 76.3959 198.879 76.6431 199.358 76.6431C199.837 76.6431 200.076 76.3959 200.076 75.9015V73.6454H201.489V76.1747C201.489 76.716 201.309 77.1219 200.95 77.3925C200.596 77.6632 200.066 77.7985 199.358 77.7985C198.65 77.7985 198.116 77.6632 197.757 77.3925C197.403 77.1219 197.227 76.716 197.227 76.1747V73.6454H198.64ZM204.026 74.8242V77.6501H202.613V74.8242H202.144V73.6454H202.613V72.4432H204.026V73.6454H204.83V74.8242H204.026ZM206.774 73.6454V75.9015C206.774 76.3959 207.013 76.6431 207.492 76.6431C207.971 76.6431 208.21 76.3959 208.21 75.9015V73.6454H209.623V76.1747C209.623 76.716 209.444 77.1219 209.085 77.3925C208.731 77.6632 208.2 77.7985 207.492 77.7985C206.784 77.7985 206.251 77.6632 205.892 77.3925C205.538 77.1219 205.361 76.716 205.361 76.1747V73.6454H206.774ZM210.583 73.6454H211.996V74.3011C212.147 74.0617 212.332 73.8796 212.55 73.7547C212.769 73.6246 213.024 73.5595 213.315 73.5595C213.352 73.5595 213.391 73.5595 213.432 73.5595C213.479 73.5595 213.531 73.5647 213.589 73.5751V74.9257C213.401 74.832 213.198 74.7851 212.98 74.7851C212.652 74.7851 212.405 74.884 212.238 75.0818C212.077 75.2744 211.996 75.558 211.996 75.9327V77.6501H210.583V73.6454ZM215.577 75.6361C215.577 75.7662 215.6 75.8885 215.647 76.003C215.694 76.1123 215.756 76.2085 215.834 76.2918C215.918 76.3751 216.014 76.4401 216.123 76.487C216.238 76.5338 216.36 76.5572 216.49 76.5572C216.615 76.5572 216.732 76.5338 216.841 76.487C216.956 76.4401 217.052 76.3751 217.13 76.2918C217.214 76.2085 217.279 76.1123 217.325 76.003C217.377 75.8937 217.403 75.7766 217.403 75.6517C217.403 75.5268 217.377 75.4097 217.325 75.3004C217.279 75.1859 217.214 75.087 217.13 75.0037C217.052 74.9205 216.956 74.8554 216.841 74.8086C216.732 74.7617 216.615 74.7383 216.49 74.7383C216.36 74.7383 216.238 74.7617 216.123 74.8086C216.014 74.8554 215.918 74.9205 215.834 75.0037C215.756 75.087 215.694 75.1833 215.647 75.2926C215.6 75.3967 215.577 75.5112 215.577 75.6361ZM217.357 73.6454H218.777V77.6501H217.357V77.2052C217.055 77.5851 216.646 77.7751 216.131 77.7751C215.84 77.7751 215.572 77.723 215.327 77.6189C215.082 77.5096 214.869 77.3587 214.687 77.1661C214.505 76.9736 214.362 76.7472 214.257 76.487C214.159 76.2268 214.109 75.9431 214.109 75.6361C214.109 75.3498 214.159 75.0792 214.257 74.8242C214.356 74.564 214.494 74.3376 214.671 74.145C214.848 73.9524 215.059 73.8015 215.304 73.6922C215.548 73.5777 215.819 73.5205 216.115 73.5205C216.615 73.5205 217.029 73.6948 217.357 74.0435V73.6454Z" fill="#041E3A"/>
<path d="M244.159 73.1864L246.052 75.0795L247.945 73.1864C248.135 72.9961 248.442 72.9961 248.633 73.1864C248.823 73.3767 248.823 73.6841 248.633 73.8744L246.393 76.1139C246.203 76.3042 245.896 76.3042 245.705 76.1139L243.466 73.8744C243.275 73.6841 243.275 73.3767 243.466 73.1864C243.656 73.001 243.968 72.9961 244.159 73.1864Z" fill="#A9A9A9"/>
<rect x="182.621" y="63.6721" width="79.0413" height="21.9559" rx="4.8791" stroke="#940000" shape-rendering="crispEdges"/>
</g>
<g filter="url(#filter3_d_1_1272)">
<rect x="265.566" y="63.6721" width="21.9559" height="21.9559" rx="4.8791" fill="white" shape-rendering="crispEdges"/>
<rect x="261.906" y="68.1499" width="29.2746" height="0.00048791" fill="white"/>
<path d="M276.384 71.183C276.989 71.183 277.486 71.2416 277.877 71.3587C278.267 71.4693 278.556 71.6547 278.745 71.9149C278.934 72.1686 279.028 72.5134 279.028 72.9493C279.028 73.2095 278.983 73.4469 278.891 73.6616C278.8 73.8763 278.677 74.052 278.521 74.1886C278.371 74.3252 278.202 74.413 278.013 74.452V74.5008C278.208 74.5464 278.394 74.6277 278.569 74.7448C278.752 74.8619 278.898 75.031 279.009 75.2522C279.119 75.4734 279.174 75.7661 279.174 76.1304C279.174 76.5533 279.074 76.9176 278.872 77.2234C278.677 77.5226 278.397 77.7536 278.033 77.9162C277.668 78.0723 277.233 78.1504 276.725 78.1504H274.227V71.183H276.384ZM276.471 73.9446C276.823 73.9446 277.067 73.8763 277.203 73.7397C277.34 73.6031 277.408 73.4047 277.408 73.1444C277.408 72.8777 277.327 72.6858 277.164 72.5687C277.008 72.4516 276.761 72.3931 276.423 72.3931H275.808V73.9446H276.471ZM275.808 75.1156V76.9306H276.569C276.933 76.9306 277.187 76.846 277.33 76.6769C277.473 76.5013 277.545 76.2703 277.545 75.9841C277.545 75.8084 277.512 75.6555 277.447 75.5254C277.389 75.3953 277.285 75.2945 277.135 75.2229C276.992 75.1514 276.79 75.1156 276.53 75.1156H275.808Z" fill="#555555"/>
</g>
<g filter="url(#filter4_d_1_1272)">
<rect x="288.01" y="68.1499" width="29.2746" height="0.00048791" fill="white"/>
<path d="M300.707 78.1504L300.844 77.5064L301.654 77.2234L302.737 72.1101L302.044 71.8271L302.171 71.183H304.913L304.777 71.8271L303.947 72.1101L302.874 77.2234L303.586 77.5064L303.44 78.1504H300.707Z" fill="white"/>
</g>
<path d="M34.4562 113.614V119.292H33.2558V113.614H34.4562ZM35.4216 119.292V115.034H36.5471V115.785H36.597C36.6857 115.535 36.8336 115.339 37.0405 115.194C37.2475 115.05 37.4952 114.978 37.7835 114.978C38.0755 114.978 38.3241 115.051 38.5292 115.197C38.7344 115.341 38.8711 115.537 38.9395 115.785H38.9839C39.0707 115.541 39.2278 115.346 39.4551 115.2C39.6843 115.052 39.9551 114.978 40.2674 114.978C40.6648 114.978 40.9873 115.105 41.2349 115.358C41.4844 115.609 41.6092 115.966 41.6092 116.428V119.292H40.431V116.661C40.431 116.424 40.3681 116.247 40.2425 116.129C40.1168 116.01 39.9597 115.951 39.7712 115.951C39.5568 115.951 39.3895 116.02 39.2694 116.156C39.1493 116.291 39.0892 116.47 39.0892 116.691V119.292H37.9443V116.636C37.9443 116.427 37.8842 116.261 37.7641 116.137C37.6458 116.013 37.4896 115.951 37.2956 115.951C37.1644 115.951 37.0461 115.984 36.9407 116.051C36.8373 116.116 36.755 116.207 36.694 116.325C36.633 116.442 36.6025 116.579 36.6025 116.736V119.292H35.4216ZM43.7562 119.372C43.4846 119.372 43.2425 119.325 43.0299 119.231C42.8174 119.135 42.6492 118.993 42.5254 118.807C42.4034 118.618 42.3424 118.383 42.3424 118.102C42.3424 117.866 42.3858 117.667 42.4727 117.506C42.5596 117.346 42.6778 117.216 42.8275 117.118C42.9772 117.02 43.1473 116.946 43.3376 116.897C43.5298 116.847 43.7313 116.812 43.942 116.791C44.1896 116.765 44.3892 116.741 44.5408 116.719C44.6923 116.695 44.8023 116.66 44.8707 116.614C44.939 116.568 44.9732 116.499 44.9732 116.409V116.392C44.9732 116.216 44.9178 116.081 44.8069 115.984C44.6979 115.888 44.5426 115.84 44.3412 115.84C44.1286 115.84 43.9595 115.887 43.8339 115.982C43.7082 116.074 43.625 116.191 43.5844 116.331L42.4921 116.242C42.5475 115.984 42.6566 115.76 42.8192 115.571C42.9819 115.381 43.1916 115.235 43.4485 115.133C43.7073 115.03 44.0067 114.978 44.3467 114.978C44.5833 114.978 44.8097 115.006 45.0259 115.061C45.244 115.117 45.4371 115.203 45.6053 115.319C45.7753 115.436 45.9093 115.585 46.0073 115.768C46.1052 115.949 46.1542 116.167 46.1542 116.42V119.292H45.0342V118.701H45.001C44.9326 118.834 44.8411 118.952 44.7265 119.053C44.6119 119.153 44.4742 119.232 44.3134 119.289C44.1527 119.344 43.9669 119.372 43.7562 119.372ZM44.0944 118.557C44.2682 118.557 44.4216 118.523 44.5546 118.455C44.6877 118.384 44.7921 118.29 44.8679 118.172C44.9437 118.053 44.9816 117.92 44.9816 117.77V117.318C44.9446 117.342 44.8938 117.364 44.8291 117.384C44.7662 117.403 44.6951 117.421 44.6156 117.437C44.5362 117.452 44.4567 117.466 44.3772 117.479C44.2977 117.49 44.2257 117.5 44.161 117.509C44.0224 117.53 43.9013 117.562 43.7978 117.606C43.6943 117.651 43.6139 117.711 43.5566 117.786C43.4993 117.86 43.4707 117.953 43.4707 118.064C43.4707 118.224 43.5289 118.347 43.6453 118.432C43.7636 118.516 43.9133 118.557 44.0944 118.557ZM48.9888 120.977C48.6062 120.977 48.2782 120.925 48.0047 120.819C47.733 120.716 47.5167 120.574 47.356 120.395C47.1952 120.216 47.0907 120.014 47.0427 119.791L48.1349 119.644C48.1682 119.729 48.2209 119.808 48.293 119.882C48.365 119.956 48.4602 120.015 48.5785 120.06C48.6986 120.106 48.8446 120.129 49.0165 120.129C49.2734 120.129 49.485 120.066 49.6513 119.94C49.8195 119.817 49.9036 119.609 49.9036 119.317V118.538H49.8537C49.802 118.656 49.7243 118.768 49.6209 118.873C49.5174 118.978 49.3843 119.064 49.2217 119.131C49.059 119.197 48.865 119.231 48.6395 119.231C48.3198 119.231 48.0287 119.157 47.7662 119.009C47.5057 118.859 47.2977 118.631 47.1425 118.324C46.9891 118.016 46.9124 117.626 46.9124 117.154C46.9124 116.672 46.9909 116.269 47.148 115.946C47.3051 115.622 47.514 115.38 47.7746 115.219C48.037 115.059 48.3244 114.978 48.6367 114.978C48.8751 114.978 49.0747 115.019 49.2355 115.1C49.3963 115.18 49.5257 115.279 49.6236 115.4C49.7234 115.518 49.8001 115.634 49.8537 115.749H49.8981V115.034H51.0707V119.333C51.0707 119.696 50.982 119.999 50.8046 120.243C50.6272 120.487 50.3814 120.67 50.0672 120.792C49.7548 120.915 49.3954 120.977 48.9888 120.977ZM49.0137 118.344C49.2041 118.344 49.3649 118.297 49.4961 118.202C49.6292 118.106 49.7308 117.969 49.801 117.792C49.8731 117.613 49.9092 117.398 49.9092 117.149C49.9092 116.899 49.874 116.683 49.8038 116.5C49.7336 116.315 49.6319 116.172 49.4989 116.07C49.3658 115.969 49.2041 115.918 49.0137 115.918C48.8197 115.918 48.6561 115.971 48.5231 116.076C48.39 116.179 48.2893 116.324 48.2209 116.508C48.1525 116.693 48.1183 116.907 48.1183 117.149C48.1183 117.395 48.1525 117.607 48.2209 117.786C48.2911 117.964 48.3918 118.102 48.5231 118.199C48.6561 118.296 48.8197 118.344 49.0137 118.344ZM53.951 119.375C53.513 119.375 53.136 119.286 52.82 119.109C52.5058 118.93 52.2637 118.676 52.0937 118.349C51.9236 118.02 51.8386 117.631 51.8386 117.182C51.8386 116.744 51.9236 116.36 52.0937 116.029C52.2637 115.698 52.503 115.44 52.8117 115.255C53.1222 115.071 53.4862 114.978 53.9039 114.978C54.1848 114.978 54.4464 115.023 54.6885 115.114C54.9324 115.203 55.1449 115.337 55.3261 115.516C55.509 115.695 55.6513 115.921 55.753 116.192C55.8546 116.462 55.9055 116.778 55.9055 117.141V117.465H52.3099V116.733H54.7938C54.7938 116.563 54.7568 116.412 54.6829 116.281C54.609 116.15 54.5064 116.047 54.3752 115.973C54.2458 115.898 54.0952 115.86 53.9233 115.86C53.7441 115.86 53.5851 115.901 53.4465 115.984C53.3097 116.066 53.2026 116.176 53.1249 116.314C53.0473 116.451 53.0076 116.604 53.0057 116.772V117.468C53.0057 117.678 53.0445 117.86 53.1222 118.014C53.2016 118.167 53.3134 118.285 53.4576 118.369C53.6017 118.452 53.7727 118.493 53.9705 118.493C54.1017 118.493 54.2218 118.475 54.3308 118.438C54.4399 118.401 54.5332 118.345 54.6108 118.272C54.6885 118.198 54.7476 118.107 54.7883 118L55.8805 118.072C55.8251 118.334 55.7114 118.564 55.5395 118.759C55.3695 118.954 55.1496 119.105 54.8797 119.214C54.6118 119.321 54.3022 119.375 53.951 119.375Z" fill="#555555"/>
<rect x="70.3313" y="105.388" width="94.6544" height="22.4438" rx="4.8791" fill="#FDF9FA"/>
<path d="M107.543 113.578H108.819V117.495C108.819 117.935 108.714 118.32 108.504 118.65C108.296 118.98 108.004 119.237 107.629 119.422C107.254 119.604 106.817 119.696 106.318 119.696C105.817 119.696 105.379 119.604 105.004 119.422C104.629 119.237 104.338 118.98 104.13 118.65C103.921 118.32 103.817 117.935 103.817 117.495V113.578H105.093V117.387C105.093 117.616 105.143 117.82 105.243 117.999C105.345 118.178 105.488 118.318 105.673 118.42C105.858 118.522 106.073 118.574 106.318 118.574C106.566 118.574 106.781 118.522 106.963 118.42C107.148 118.318 107.29 118.178 107.39 117.999C107.492 117.82 107.543 117.616 107.543 117.387V113.578ZM109.845 121.307V115.086H111.082V115.846H111.138C111.193 115.724 111.272 115.601 111.376 115.475C111.482 115.347 111.62 115.241 111.789 115.157C111.959 115.07 112.172 115.027 112.425 115.027C112.755 115.027 113.059 115.114 113.338 115.286C113.617 115.457 113.84 115.715 114.007 116.061C114.173 116.405 114.257 116.836 114.257 117.354C114.257 117.859 114.175 118.285 114.012 118.632C113.851 118.978 113.631 119.24 113.353 119.419C113.076 119.596 112.766 119.684 112.422 119.684C112.178 119.684 111.971 119.644 111.8 119.563C111.632 119.483 111.493 119.382 111.385 119.26C111.277 119.136 111.195 119.011 111.138 118.886H111.099V121.307H109.845ZM111.073 117.348C111.073 117.617 111.11 117.852 111.185 118.052C111.259 118.252 111.367 118.409 111.509 118.521C111.65 118.63 111.822 118.685 112.024 118.685C112.228 118.685 112.401 118.63 112.543 118.518C112.684 118.404 112.791 118.247 112.864 118.046C112.938 117.844 112.976 117.611 112.976 117.348C112.976 117.087 112.939 116.857 112.867 116.659C112.794 116.461 112.687 116.306 112.546 116.194C112.404 116.082 112.23 116.026 112.024 116.026C111.82 116.026 111.647 116.08 111.506 116.188C111.366 116.296 111.259 116.449 111.185 116.647C111.11 116.846 111.073 117.079 111.073 117.348ZM116.348 113.578V119.61H115.093V113.578H116.348ZM119.398 119.699C118.94 119.699 118.544 119.602 118.21 119.407C117.879 119.211 117.622 118.938 117.442 118.588C117.261 118.237 117.171 117.829 117.171 117.366C117.171 116.899 117.261 116.49 117.442 116.141C117.622 115.789 117.879 115.516 118.21 115.322C118.544 115.125 118.94 115.027 119.398 115.027C119.855 115.027 120.25 115.125 120.582 115.322C120.915 115.516 121.173 115.789 121.353 116.141C121.534 116.49 121.624 116.899 121.624 117.366C121.624 117.829 121.534 118.237 121.353 118.588C121.173 118.938 120.915 119.211 120.582 119.407C120.25 119.602 119.855 119.699 119.398 119.699ZM119.403 118.727C119.612 118.727 119.785 118.668 119.925 118.55C120.064 118.43 120.169 118.267 120.24 118.061C120.313 117.855 120.349 117.62 120.349 117.357C120.349 117.094 120.313 116.859 120.24 116.653C120.169 116.447 120.064 116.284 119.925 116.164C119.785 116.044 119.612 115.984 119.403 115.984C119.193 115.984 119.017 116.044 118.873 116.164C118.732 116.284 118.625 116.447 118.552 116.653C118.481 116.859 118.446 117.094 118.446 117.357C118.446 117.62 118.481 117.855 118.552 118.061C118.625 118.267 118.732 118.43 118.873 118.55C119.017 118.668 119.193 118.727 119.403 118.727ZM123.73 119.696C123.442 119.696 123.184 119.646 122.959 119.546C122.733 119.443 122.554 119.293 122.423 119.095C122.293 118.895 122.228 118.645 122.228 118.347C122.228 118.095 122.274 117.884 122.367 117.713C122.459 117.543 122.585 117.405 122.744 117.301C122.903 117.197 123.083 117.118 123.286 117.065C123.49 117.012 123.704 116.975 123.928 116.954C124.191 116.926 124.403 116.901 124.564 116.877C124.725 116.851 124.842 116.814 124.914 116.765C124.987 116.716 125.023 116.643 125.023 116.547V116.529C125.023 116.343 124.964 116.199 124.847 116.096C124.731 115.994 124.566 115.943 124.352 115.943C124.126 115.943 123.946 115.993 123.813 116.093C123.679 116.192 123.591 116.315 123.548 116.465L122.387 116.37C122.446 116.095 122.562 115.858 122.735 115.658C122.908 115.455 123.13 115.3 123.403 115.192C123.678 115.082 123.996 115.027 124.358 115.027C124.609 115.027 124.85 115.057 125.079 115.116C125.311 115.174 125.516 115.266 125.695 115.389C125.876 115.513 126.018 115.672 126.122 115.867C126.226 116.059 126.278 116.29 126.278 116.559V119.61H125.088V118.983H125.053C124.98 119.124 124.883 119.249 124.761 119.357C124.639 119.463 124.493 119.547 124.322 119.607C124.152 119.666 123.954 119.696 123.73 119.696ZM124.09 118.83C124.274 118.83 124.437 118.793 124.579 118.721C124.72 118.646 124.831 118.546 124.911 118.42C124.992 118.295 125.032 118.152 125.032 117.993V117.513C124.993 117.539 124.939 117.562 124.87 117.584C124.803 117.604 124.728 117.622 124.643 117.64C124.559 117.656 124.475 117.67 124.39 117.684C124.306 117.696 124.229 117.707 124.16 117.716C124.013 117.738 123.884 117.772 123.774 117.82C123.665 117.867 123.579 117.93 123.518 118.011C123.457 118.09 123.427 118.188 123.427 118.306C123.427 118.476 123.489 118.607 123.612 118.697C123.738 118.786 123.897 118.83 124.09 118.83ZM128.919 119.684C128.575 119.684 128.264 119.596 127.985 119.419C127.708 119.24 127.488 118.978 127.325 118.632C127.164 118.285 127.084 117.859 127.084 117.354C127.084 116.836 127.167 116.405 127.334 116.061C127.501 115.715 127.723 115.457 128 115.286C128.279 115.114 128.584 115.027 128.916 115.027C129.169 115.027 129.38 115.07 129.549 115.157C129.72 115.241 129.857 115.347 129.961 115.475C130.067 115.601 130.148 115.724 130.203 115.846H130.241V113.578H131.493V119.61H130.256V118.886H130.203C130.144 119.011 130.061 119.136 129.953 119.26C129.847 119.382 129.708 119.483 129.537 119.563C129.368 119.644 129.162 119.684 128.919 119.684ZM129.316 118.685C129.519 118.685 129.689 118.63 129.829 118.521C129.97 118.409 130.078 118.252 130.153 118.052C130.229 117.852 130.268 117.617 130.268 117.348C130.268 117.079 130.23 116.846 130.156 116.647C130.081 116.449 129.973 116.296 129.832 116.188C129.69 116.08 129.519 116.026 129.316 116.026C129.11 116.026 128.936 116.082 128.795 116.194C128.654 116.306 128.547 116.461 128.474 116.659C128.401 116.857 128.365 117.087 128.365 117.348C128.365 117.611 128.401 117.844 128.474 118.046C128.549 118.247 128.656 118.404 128.795 118.518C128.936 118.63 129.11 118.685 129.316 118.685Z" fill="#041E3A"/>
<rect x="70.3313" y="105.388" width="94.6544" height="22.4438" rx="4.8791" stroke="#940000"/>
<rect x="19.5164" y="146.373" width="114.984" height="55.8393" rx="9.75819" fill="#FDF9FA"/>
<path d="M31.7197 165.083V159.405H33.9929C34.4105 159.405 34.7589 159.467 35.038 159.591C35.3171 159.715 35.5268 159.887 35.6673 160.107C35.8077 160.325 35.878 160.576 35.878 160.861C35.878 161.082 35.8336 161.277 35.7449 161.446C35.6562 161.612 35.5342 161.749 35.379 161.856C35.2256 161.961 35.05 162.036 34.8523 162.08V162.136C35.0685 162.145 35.2709 162.206 35.4594 162.319C35.6497 162.432 35.804 162.59 35.9223 162.793C36.0406 162.994 36.0997 163.235 36.0997 163.514C36.0997 163.815 36.0249 164.084 35.8752 164.32C35.7273 164.555 35.5083 164.741 35.2182 164.878C34.928 165.014 34.5704 165.083 34.1453 165.083H31.7197ZM32.92 164.101H33.8986C34.2331 164.101 34.4771 164.038 34.6305 163.91C34.7839 163.781 34.8606 163.609 34.8606 163.394C34.8606 163.237 34.8227 163.099 34.7469 162.979C34.6711 162.859 34.563 162.764 34.4226 162.696C34.2839 162.628 34.1185 162.593 33.9263 162.593H32.92V164.101ZM32.92 161.781H33.8099C33.9744 161.781 34.1204 161.752 34.2479 161.695C34.3773 161.636 34.4789 161.553 34.5529 161.446C34.6286 161.338 34.6665 161.21 34.6665 161.06C34.6665 160.855 34.5935 160.69 34.4475 160.564C34.3034 160.438 34.0982 160.376 33.8321 160.376H32.92V161.781ZM38.0729 165.163C37.8012 165.163 37.5591 165.116 37.3466 165.022C37.134 164.926 36.9658 164.784 36.842 164.598C36.72 164.409 36.659 164.174 36.659 163.893C36.659 163.657 36.7025 163.458 36.7893 163.297C36.8762 163.137 36.9945 163.007 37.1442 162.909C37.2939 162.811 37.4639 162.737 37.6543 162.688C37.8465 162.638 38.0479 162.603 38.2586 162.582C38.5063 162.556 38.7059 162.532 38.8574 162.51C39.009 162.486 39.1189 162.451 39.1873 162.405C39.2557 162.359 39.2899 162.29 39.2899 162.2V162.183C39.2899 162.007 39.2344 161.872 39.1235 161.776C39.0145 161.679 38.8593 161.631 38.6578 161.631C38.4453 161.631 38.2762 161.678 38.1505 161.773C38.0248 161.865 37.9417 161.982 37.901 162.122L36.8087 162.033C36.8642 161.775 36.9732 161.551 37.1359 161.362C37.2985 161.172 37.5083 161.026 37.7652 160.924C38.0239 160.821 38.3233 160.769 38.6634 160.769C38.8999 160.769 39.1263 160.797 39.3425 160.852C39.5606 160.908 39.7538 160.994 39.9219 161.11C40.092 161.227 40.226 161.376 40.3239 161.559C40.4219 161.74 40.4708 161.958 40.4708 162.211V165.083H39.3509V164.492H39.3176C39.2492 164.625 39.1577 164.743 39.0431 164.844C38.9286 164.944 38.7909 165.023 38.6301 165.08C38.4693 165.135 38.2836 165.163 38.0729 165.163ZM38.4111 164.348C38.5848 164.348 38.7382 164.314 38.8713 164.246C39.0043 164.175 39.1088 164.081 39.1845 163.963C39.2603 163.845 39.2982 163.711 39.2982 163.561V163.109C39.2612 163.133 39.2104 163.155 39.1457 163.175C39.0829 163.194 39.0117 163.212 38.9323 163.228C38.8528 163.243 38.7733 163.257 38.6938 163.27C38.6144 163.281 38.5423 163.291 38.4776 163.3C38.339 163.321 38.2179 163.353 38.1145 163.397C38.011 163.442 37.9306 163.502 37.8733 163.577C37.816 163.651 37.7873 163.744 37.7873 163.855C37.7873 164.015 37.8455 164.138 37.962 164.223C38.0803 164.307 38.23 164.348 38.4111 164.348ZM43.311 165.166C42.8748 165.166 42.4996 165.074 42.1854 164.889C41.8731 164.702 41.6329 164.443 41.4647 164.112C41.2983 163.782 41.2152 163.401 41.2152 162.97C41.2152 162.534 41.2993 162.152 41.4674 161.823C41.6375 161.492 41.8787 161.234 42.191 161.049C42.5033 160.863 42.8748 160.769 43.3054 160.769C43.6769 160.769 44.0022 160.837 44.2812 160.972C44.5603 161.106 44.7812 161.296 44.9438 161.54C45.1064 161.784 45.1961 162.07 45.2127 162.399H44.0983C44.0669 162.187 43.9837 162.016 43.8488 161.886C43.7157 161.755 43.5411 161.69 43.3248 161.69C43.1419 161.69 42.982 161.739 42.8452 161.839C42.7103 161.937 42.605 162.08 42.5292 162.269C42.4534 162.457 42.4155 162.686 42.4155 162.954C42.4155 163.225 42.4525 163.456 42.5264 163.647C42.6022 163.837 42.7085 163.982 42.8452 164.082C42.982 164.182 43.1419 164.232 43.3248 164.232C43.4597 164.232 43.5808 164.204 43.688 164.149C43.797 164.093 43.8867 164.013 43.9569 163.907C44.029 163.8 44.0761 163.672 44.0983 163.522H45.2127C45.1942 163.847 45.1055 164.134 44.9466 164.381C44.7895 164.627 44.5723 164.819 44.2951 164.958C44.0179 165.097 43.6898 165.166 43.311 165.166ZM47.0389 163.857L47.0417 162.441H47.2136L48.5775 160.825H49.9331L48.1007 162.965H47.8207L47.0389 163.857ZM45.9688 165.083V159.405H47.1498V165.083H45.9688ZM48.6302 165.083L47.3771 163.228L48.1644 162.394L50.0135 165.083H48.6302ZM52.2555 166.768C51.8729 166.768 51.5449 166.716 51.2714 166.61C50.9997 166.507 50.7835 166.365 50.6227 166.186C50.4619 166.007 50.3575 165.805 50.3094 165.582L51.4017 165.435C51.4349 165.52 51.4876 165.599 51.5597 165.673C51.6318 165.747 51.7269 165.806 51.8452 165.851C51.9654 165.897 52.1114 165.92 52.2832 165.92C52.5401 165.92 52.7517 165.857 52.9181 165.731C53.0863 165.608 53.1703 165.4 53.1703 165.108V164.329H53.1204C53.0687 164.447 52.9911 164.559 52.8876 164.664C52.7841 164.77 52.651 164.855 52.4884 164.922C52.3257 164.989 52.1317 165.022 51.9062 165.022C51.5865 165.022 51.2954 164.948 51.033 164.8C50.7724 164.65 50.5645 164.422 50.4092 164.115C50.2558 163.807 50.1791 163.417 50.1791 162.945C50.1791 162.463 50.2577 162.06 50.4148 161.737C50.5719 161.413 50.7807 161.171 51.0413 161.01C51.3037 160.85 51.5911 160.769 51.9034 160.769C52.1419 160.769 52.3415 160.81 52.5022 160.891C52.663 160.971 52.7924 161.07 52.8903 161.191C52.9901 161.309 53.0668 161.425 53.1204 161.54H53.1648V160.825H54.3374V165.124C54.3374 165.487 54.2487 165.79 54.0713 166.034C53.8939 166.278 53.6481 166.461 53.3339 166.583C53.0216 166.706 52.6621 166.768 52.2555 166.768ZM52.2805 164.135C52.4708 164.135 52.6316 164.088 52.7628 163.993C52.8959 163.897 52.9975 163.76 53.0678 163.583C53.1398 163.404 53.1759 163.189 53.1759 162.94C53.1759 162.69 53.1408 162.474 53.0705 162.291C53.0003 162.106 52.8987 161.963 52.7656 161.861C52.6325 161.76 52.4708 161.709 52.2805 161.709C52.0864 161.709 51.9228 161.762 51.7898 161.867C51.6567 161.97 51.556 162.115 51.4876 162.299C51.4192 162.484 51.385 162.698 51.385 162.94C51.385 163.186 51.4192 163.398 51.4876 163.577C51.5578 163.755 51.6586 163.893 51.7898 163.991C51.9228 164.087 52.0864 164.135 52.2805 164.135ZM55.2772 165.083V160.825H56.4221V161.568H56.4665C56.5441 161.303 56.6744 161.104 56.8574 160.969C57.0404 160.832 57.251 160.764 57.4895 160.764C57.5486 160.764 57.6124 160.767 57.6807 160.775C57.7491 160.782 57.8092 160.792 57.8609 160.805V161.853C57.8055 161.837 57.7288 161.822 57.6308 161.809C57.5329 161.796 57.4432 161.789 57.3619 161.789C57.1882 161.789 57.033 161.827 56.8962 161.903C56.7613 161.977 56.6541 162.08 56.5746 162.214C56.497 162.347 56.4582 162.5 56.4582 162.674V165.083H55.2772ZM60.1972 165.166C59.7666 165.166 59.3942 165.074 59.08 164.891C58.7677 164.707 58.5265 164.45 58.3565 164.121C58.1864 163.79 58.1014 163.406 58.1014 162.97C58.1014 162.53 58.1864 162.146 58.3565 161.817C58.5265 161.486 58.7677 161.229 59.08 161.046C59.3942 160.862 59.7666 160.769 60.1972 160.769C60.6278 160.769 60.9993 160.862 61.3116 161.046C61.6258 161.229 61.8679 161.486 62.038 161.817C62.208 162.146 62.293 162.53 62.293 162.97C62.293 163.406 62.208 163.79 62.038 164.121C61.8679 164.45 61.6258 164.707 61.3116 164.891C60.9993 165.074 60.6278 165.166 60.1972 165.166ZM60.2028 164.251C60.3987 164.251 60.5622 164.196 60.6934 164.085C60.8247 163.972 60.9235 163.819 60.9901 163.625C61.0584 163.431 61.0926 163.21 61.0926 162.962C61.0926 162.714 61.0584 162.494 60.9901 162.299C60.9235 162.105 60.8247 161.952 60.6934 161.839C60.5622 161.727 60.3987 161.67 60.2028 161.67C60.005 161.67 59.8387 161.727 59.7038 161.839C59.5707 161.952 59.47 162.105 59.4016 162.299C59.3351 162.494 59.3018 162.714 59.3018 162.962C59.3018 163.21 59.3351 163.431 59.4016 163.625C59.47 163.819 59.5707 163.972 59.7038 164.085C59.8387 164.196 60.005 164.251 60.2028 164.251ZM65.7915 163.27V160.825H66.9725V165.083H65.8387V164.309H65.7943C65.6982 164.559 65.5383 164.759 65.3147 164.911C65.0929 165.062 64.8222 165.138 64.5025 165.138C64.2178 165.138 63.9674 165.074 63.7512 164.944C63.535 164.815 63.3658 164.631 63.2439 164.392C63.1237 164.154 63.0628 163.869 63.0609 163.536V160.825H64.2419V163.325C64.2437 163.577 64.3112 163.775 64.4442 163.921C64.5773 164.067 64.7557 164.14 64.9793 164.14C65.1216 164.14 65.2547 164.108 65.3785 164.043C65.5023 163.977 65.6021 163.879 65.6779 163.749C65.7555 163.62 65.7934 163.46 65.7915 163.27ZM69.0981 162.621V165.083H67.9171V160.825H69.0426V161.576H69.0925C69.1868 161.328 69.3448 161.132 69.5666 160.988C69.7884 160.842 70.0573 160.769 70.3733 160.769C70.669 160.769 70.9268 160.834 71.1468 160.963C71.3667 161.093 71.5376 161.277 71.6596 161.518C71.7816 161.756 71.8426 162.041 71.8426 162.372V165.083H70.6616V162.582C70.6635 162.322 70.5969 162.118 70.462 161.972C70.3271 161.824 70.1414 161.751 69.9048 161.751C69.7459 161.751 69.6054 161.785 69.4834 161.853C69.3633 161.922 69.269 162.021 69.2007 162.153C69.1341 162.282 69.0999 162.438 69.0981 162.621ZM74.3424 165.152C74.019 165.152 73.7261 165.069 73.4636 164.903C73.203 164.734 72.9961 164.488 72.8427 164.162C72.6911 163.835 72.6153 163.434 72.6153 162.959C72.6153 162.471 72.6939 162.066 72.851 161.742C73.0081 161.417 73.2169 161.174 73.4775 161.013C73.7399 160.851 74.0273 160.769 74.3397 160.769C74.5781 160.769 74.7767 160.81 74.9357 160.891C75.0965 160.971 75.2258 161.07 75.3238 161.191C75.4236 161.309 75.4994 161.425 75.5511 161.54H75.5872V159.405H76.7653V165.083H75.601V164.401H75.5511C75.4957 164.519 75.4171 164.636 75.3155 164.753C75.2157 164.867 75.0854 164.963 74.9246 165.038C74.7657 165.114 74.5716 165.152 74.3424 165.152ZM74.7167 164.212C74.907 164.212 75.0678 164.161 75.199 164.057C75.3321 163.952 75.4338 163.805 75.504 163.616C75.5761 163.428 75.6121 163.207 75.6121 162.954C75.6121 162.701 75.577 162.481 75.5068 162.294C75.4365 162.107 75.3349 161.963 75.2018 161.861C75.0687 161.76 74.907 161.709 74.7167 161.709C74.5226 161.709 74.3591 161.762 74.226 161.867C74.0929 161.972 73.9922 162.118 73.9238 162.305C73.8554 162.492 73.8213 162.708 73.8213 162.954C73.8213 163.201 73.8554 163.42 73.9238 163.611C73.9941 163.799 74.0948 163.947 74.226 164.054C74.3591 164.16 74.5226 164.212 74.7167 164.212ZM84.5747 161.393H83.3604C83.3383 161.236 83.293 161.096 83.2246 160.974C83.1562 160.851 83.0684 160.745 82.9612 160.658C82.854 160.571 82.7302 160.505 82.5898 160.459C82.4512 160.413 82.3005 160.389 82.1379 160.389C81.844 160.389 81.5881 160.462 81.37 160.608C81.1519 160.753 80.9828 160.963 80.8627 161.24C80.7425 161.516 80.6825 161.85 80.6825 162.244C80.6825 162.649 80.7425 162.989 80.8627 163.264C80.9847 163.54 81.1547 163.747 81.3728 163.888C81.5908 164.028 81.8431 164.099 82.1296 164.099C82.2904 164.099 82.4391 164.077 82.5759 164.035C82.7145 163.992 82.8374 163.93 82.9446 163.849C83.0518 163.766 83.1405 163.665 83.2107 163.547C83.2828 163.429 83.3327 163.294 83.3604 163.142L84.5747 163.148C84.5432 163.408 84.4647 163.66 84.339 163.902C84.2152 164.142 84.0479 164.357 83.8373 164.548C83.6284 164.736 83.3789 164.886 83.0888 164.997C82.8004 165.106 82.4743 165.16 82.1102 165.16C81.6038 165.16 81.151 165.046 80.7518 164.817C80.3544 164.587 80.0402 164.256 79.8092 163.821C79.5801 163.387 79.4655 162.861 79.4655 162.244C79.4655 161.625 79.5819 161.098 79.8148 160.664C80.0476 160.23 80.3637 159.899 80.7629 159.671C81.1621 159.442 81.6112 159.328 82.1102 159.328C82.4391 159.328 82.7441 159.374 83.025 159.466C83.3078 159.559 83.5582 159.694 83.7763 159.871C83.9943 160.047 84.1718 160.262 84.3085 160.517C84.4471 160.772 84.5359 161.064 84.5747 161.393ZM87.3372 165.166C86.9066 165.166 86.5342 165.074 86.22 164.891C85.9076 164.707 85.6665 164.45 85.4964 164.121C85.3264 163.79 85.2414 163.406 85.2414 162.97C85.2414 162.53 85.3264 162.146 85.4964 161.817C85.6665 161.486 85.9076 161.229 86.22 161.046C86.5342 160.862 86.9066 160.769 87.3372 160.769C87.7678 160.769 88.1393 160.862 88.4516 161.046C88.7658 161.229 89.0079 161.486 89.1779 161.817C89.348 162.146 89.433 162.53 89.433 162.97C89.433 163.406 89.348 163.79 89.1779 164.121C89.0079 164.45 88.7658 164.707 88.4516 164.891C88.1393 165.074 87.7678 165.166 87.3372 165.166ZM87.3427 164.251C87.5386 164.251 87.7022 164.196 87.8334 164.085C87.9646 163.972 88.0635 163.819 88.13 163.625C88.1984 163.431 88.2326 163.21 88.2326 162.962C88.2326 162.714 88.1984 162.494 88.13 162.299C88.0635 162.105 87.9646 161.952 87.8334 161.839C87.7022 161.727 87.5386 161.67 87.3427 161.67C87.145 161.67 86.9786 161.727 86.8437 161.839C86.7107 161.952 86.6099 162.105 86.5416 162.299C86.475 162.494 86.4418 162.714 86.4418 162.962C86.4418 163.21 86.475 163.431 86.5416 163.625C86.6099 163.819 86.7107 163.972 86.8437 164.085C86.9786 164.196 87.145 164.251 87.3427 164.251ZM91.3818 159.405V165.083H90.2009V159.405H91.3818ZM94.2518 165.166C93.8212 165.166 93.4488 165.074 93.1346 164.891C92.8222 164.707 92.5811 164.45 92.411 164.121C92.241 163.79 92.156 163.406 92.156 162.97C92.156 162.53 92.241 162.146 92.411 161.817C92.5811 161.486 92.8222 161.229 93.1346 161.046C93.4488 160.862 93.8212 160.769 94.2518 160.769C94.6824 160.769 95.0539 160.862 95.3662 161.046C95.6804 161.229 95.9225 161.486 96.0925 161.817C96.2625 162.146 96.3476 162.53 96.3476 162.97C96.3476 163.406 96.2625 163.79 96.0925 164.121C95.9225 164.45 95.6804 164.707 95.3662 164.891C95.0539 165.074 94.6824 165.166 94.2518 165.166ZM94.2573 164.251C94.4532 164.251 94.6168 164.196 94.748 164.085C94.8792 163.972 94.9781 163.819 95.0446 163.625C95.113 163.431 95.1472 163.21 95.1472 162.962C95.1472 162.714 95.113 162.494 95.0446 162.299C94.9781 162.105 94.8792 161.952 94.748 161.839C94.6168 161.727 94.4532 161.67 94.2573 161.67C94.0596 161.67 93.8932 161.727 93.7583 161.839C93.6253 161.952 93.5245 162.105 93.4561 162.299C93.3896 162.494 93.3563 162.714 93.3563 162.962C93.3563 163.21 93.3896 163.431 93.4561 163.625C93.5245 163.819 93.6253 163.972 93.7583 164.085C93.8932 164.196 94.0596 164.251 94.2573 164.251ZM99.8461 163.27V160.825H101.027V165.083H99.8932V164.309H99.8489C99.7528 164.559 99.5929 164.759 99.3693 164.911C99.1475 165.062 98.8767 165.138 98.557 165.138C98.2724 165.138 98.022 165.074 97.8057 164.944C97.5895 164.815 97.4204 164.631 97.2984 164.392C97.1783 164.154 97.1173 163.869 97.1155 163.536V160.825H98.2964V163.325C98.2983 163.577 98.3657 163.775 98.4988 163.921C98.6319 164.067 98.8102 164.14 99.0338 164.14C99.1761 164.14 99.3092 164.108 99.433 164.043C99.5569 163.977 99.6567 163.879 99.7324 163.749C99.8101 163.62 99.8479 163.46 99.8461 163.27ZM101.972 165.083V160.825H103.117V161.568H103.161C103.239 161.303 103.369 161.104 103.552 160.969C103.735 160.832 103.946 160.764 104.184 160.764C104.243 160.764 104.307 160.767 104.375 160.775C104.444 160.782 104.504 160.792 104.555 160.805V161.853C104.5 161.837 104.423 161.822 104.325 161.809C104.227 161.796 104.138 161.789 104.056 161.789C103.883 161.789 103.727 161.827 103.591 161.903C103.456 161.977 103.349 162.08 103.269 162.214C103.191 162.347 103.153 162.5 103.153 162.674V165.083H101.972Z" fill="#555555"/>
<g filter="url(#filter5_d_1_1272)">
<path d="M33.8691 183.322C33.5771 183.32 33.2952 183.271 33.0236 183.175C32.7537 183.079 32.5116 182.923 32.2972 182.707C32.0829 182.49 31.9128 182.204 31.7872 181.847C31.6633 181.49 31.6014 181.052 31.6014 180.533C31.6033 180.056 31.6578 179.63 31.765 179.255C31.874 178.878 32.0293 178.558 32.2307 178.296C32.434 178.034 32.677 177.834 32.9598 177.697C33.2426 177.559 33.5595 177.489 33.9107 177.489C34.2895 177.489 34.6241 177.563 34.9142 177.711C35.2044 177.857 35.4372 178.056 35.6128 178.307C35.7902 178.558 35.8974 178.84 35.9344 179.153H34.7507C34.7045 178.955 34.6074 178.8 34.4596 178.687C34.3117 178.574 34.1288 178.518 33.9107 178.518C33.541 178.518 33.2601 178.679 33.0679 179C32.8776 179.322 32.7805 179.759 32.7768 180.311H32.8157C32.9007 180.143 33.0153 180 33.1594 179.882C33.3054 179.762 33.4708 179.67 33.6556 179.607C33.8423 179.543 34.0391 179.51 34.2461 179.51C34.5825 179.51 34.8819 179.59 35.1443 179.749C35.4067 179.906 35.6137 180.122 35.7653 180.397C35.9168 180.673 35.9926 180.988 35.9926 181.343C35.9926 181.727 35.903 182.069 35.7237 182.368C35.5463 182.668 35.2977 182.902 34.978 183.073C34.6601 183.241 34.2905 183.324 33.8691 183.322ZM33.8635 182.379C34.0484 182.379 34.2138 182.335 34.3598 182.246C34.5058 182.158 34.6204 182.038 34.7035 181.886C34.7867 181.734 34.8283 181.564 34.8283 181.376C34.8283 181.187 34.7867 181.018 34.7035 180.869C34.6222 180.719 34.5095 180.6 34.3653 180.511C34.2212 180.422 34.0567 180.378 33.8719 180.378C33.7333 180.378 33.6048 180.404 33.4865 180.456C33.3701 180.507 33.2675 180.579 33.1788 180.672C33.092 180.764 33.0236 180.871 32.9737 180.993C32.9238 181.113 32.8988 181.242 32.8988 181.379C32.8988 181.562 32.9404 181.729 33.0236 181.88C33.1086 182.032 33.2232 182.153 33.3673 182.244C33.5133 182.334 33.6787 182.379 33.8635 182.379ZM38.9422 183.322C38.5283 183.322 38.1596 183.251 37.8361 183.109C37.5146 182.964 37.2604 182.767 37.0738 182.515C36.889 182.262 36.7938 181.97 36.7882 181.639H37.9969C38.0043 181.778 38.0496 181.9 38.1328 182.005C38.2178 182.109 38.3305 182.189 38.471 182.246C38.6114 182.304 38.7694 182.332 38.945 182.332C39.128 182.332 39.2897 182.3 39.4302 182.235C39.5706 182.171 39.6806 182.081 39.76 181.966C39.8395 181.852 39.8793 181.72 39.8793 181.57C39.8793 181.418 39.8367 181.284 39.7517 181.168C39.6686 181.05 39.5484 180.957 39.3913 180.891C39.2361 180.824 39.0513 180.791 38.8369 180.791H38.3074V179.909H38.8369C39.018 179.909 39.1779 179.878 39.3165 179.815C39.457 179.752 39.566 179.665 39.6436 179.555C39.7212 179.442 39.76 179.311 39.76 179.161C39.76 179.019 39.7259 178.894 39.6575 178.787C39.5909 178.678 39.4967 178.593 39.3747 178.532C39.2546 178.471 39.1141 178.44 38.9533 178.44C38.7907 178.44 38.6419 178.47 38.507 178.529C38.3721 178.586 38.264 178.668 38.1827 178.776C38.1013 178.883 38.0579 179.008 38.0524 179.153H36.9019C36.9074 178.825 37.0008 178.537 37.1819 178.288C37.363 178.038 37.607 177.843 37.9138 177.703C38.2224 177.56 38.5708 177.489 38.9589 177.489C39.3507 177.489 39.6935 177.56 39.9874 177.703C40.2812 177.845 40.5095 178.037 40.6721 178.279C40.8366 178.52 40.9179 178.789 40.9161 179.089C40.9179 179.407 40.819 179.672 40.6194 179.884C40.4217 180.097 40.1639 180.232 39.846 180.289V180.334C40.2637 180.387 40.5815 180.532 40.7996 180.769C41.0196 181.004 41.1286 181.297 41.1267 181.65C41.1286 181.974 41.0353 182.261 40.8468 182.513C40.6601 182.764 40.4023 182.962 40.0733 183.106C39.7443 183.25 39.3673 183.322 38.9422 183.322ZM44.1686 183.322C43.8766 183.32 43.5947 183.271 43.323 183.175C43.0532 183.079 42.8111 182.923 42.5967 182.707C42.3823 182.49 42.2123 182.204 42.0866 181.847C41.9628 181.49 41.9009 181.052 41.9009 180.533C41.9027 180.056 41.9573 179.63 42.0644 179.255C42.1735 178.878 42.3287 178.558 42.5302 178.296C42.7335 178.034 42.9765 177.834 43.2593 177.697C43.542 177.559 43.859 177.489 44.2101 177.489C44.589 177.489 44.9235 177.563 45.2137 177.711C45.5038 177.857 45.7367 178.056 45.9123 178.307C46.0897 178.558 46.1969 178.84 46.2339 179.153H45.0501C45.0039 178.955 44.9069 178.8 44.759 178.687C44.6112 178.574 44.4282 178.518 44.2101 178.518C43.8405 178.518 43.5596 178.679 43.3674 179C43.177 179.322 43.08 179.759 43.0763 180.311H43.1151C43.2001 180.143 43.3147 180 43.4589 179.882C43.6049 179.762 43.7703 179.67 43.9551 179.607C44.1418 179.543 44.3386 179.51 44.5456 179.51C44.8819 179.51 45.1813 179.59 45.4438 179.749C45.7062 179.906 45.9132 180.122 46.0648 180.397C46.2163 180.673 46.2921 180.988 46.2921 181.343C46.2921 181.727 46.2024 182.069 46.0232 182.368C45.8457 182.668 45.5972 182.902 45.2774 183.073C44.9596 183.241 44.5899 183.324 44.1686 183.322ZM44.163 182.379C44.3478 182.379 44.5132 182.335 44.6592 182.246C44.8052 182.158 44.9198 182.038 45.003 181.886C45.0862 181.734 45.1277 181.564 45.1277 181.376C45.1277 181.187 45.0862 181.018 45.003 180.869C44.9217 180.719 44.8089 180.6 44.6648 180.511C44.5206 180.422 44.3561 180.378 44.1713 180.378C44.0327 180.378 43.9043 180.404 43.786 180.456C43.6696 180.507 43.567 180.579 43.4783 180.672C43.3914 180.764 43.323 180.871 43.2731 180.993C43.2232 181.113 43.1983 181.242 43.1983 181.379C43.1983 181.562 43.2399 181.729 43.323 181.88C43.408 182.032 43.5226 182.153 43.6668 182.244C43.8128 182.334 43.9782 182.379 44.163 182.379ZM49.3221 183.322C49.0301 183.32 48.7483 183.271 48.4766 183.175C48.2067 183.079 47.9646 182.923 47.7503 182.707C47.5359 182.49 47.3658 182.204 47.2402 181.847C47.1163 181.49 47.0544 181.052 47.0544 180.533C47.0563 180.056 47.1108 179.63 47.218 179.255C47.327 178.878 47.4823 178.558 47.6837 178.296C47.887 178.034 48.1301 177.834 48.4128 177.697C48.6956 177.559 49.0125 177.489 49.3637 177.489C49.7426 177.489 50.0771 177.563 50.3672 177.711C50.6574 177.857 50.8903 178.056 51.0658 178.307C51.2432 178.558 51.3504 178.84 51.3874 179.153H50.2037C50.1575 178.955 50.0604 178.8 49.9126 178.687C49.7647 178.574 49.5818 178.518 49.3637 178.518C48.9941 178.518 48.7131 178.679 48.5209 179C48.3306 179.322 48.2335 179.759 48.2299 180.311H48.2687C48.3537 180.143 48.4683 180 48.6124 179.882C48.7584 179.762 48.9238 179.67 49.1086 179.607C49.2953 179.543 49.4921 179.51 49.6991 179.51C50.0355 179.51 50.3349 179.59 50.5973 179.749C50.8598 179.906 51.0668 180.122 51.2183 180.397C51.3698 180.673 51.4456 180.988 51.4456 181.343C51.4456 181.727 51.356 182.069 51.1767 182.368C50.9993 182.668 50.7507 182.902 50.431 183.073C50.1131 183.241 49.7435 183.324 49.3221 183.322ZM49.3166 182.379C49.5014 182.379 49.6668 182.335 49.8128 182.246C49.9588 182.158 50.0734 182.038 50.1565 181.886C50.2397 181.734 50.2813 181.564 50.2813 181.376C50.2813 181.187 50.2397 181.018 50.1565 180.869C50.0752 180.719 49.9625 180.6 49.8183 180.511C49.6742 180.422 49.5097 180.378 49.3249 180.378C49.1863 180.378 49.0578 180.404 48.9395 180.456C48.8231 180.507 48.7205 180.579 48.6318 180.672C48.545 180.764 48.4766 180.871 48.4267 180.993C48.3768 181.113 48.3518 181.242 48.3518 181.379C48.3518 181.562 48.3934 181.729 48.4766 181.88C48.5616 182.032 48.6762 182.153 48.8203 182.244C48.9663 182.334 49.1317 182.379 49.3166 182.379ZM52.33 183.244V177.567H56.0891V178.557H53.5303V179.909H55.8396V180.899H53.5303V183.244H52.33ZM59.3333 177.567V183.244H58.1329V178.706H58.0996L56.7995 179.521V178.457L58.205 177.567H59.3333Z" fill="#041E3A"/>
<circle cx="69.4965" cy="180.744" r="5.367" fill="#6366F1"/>
<rect x="31.2262" y="170.986" width="64.892" height="19.5164" rx="4.8791" stroke="#979797" shape-rendering="crispEdges"/>
</g>
<rect x="164.751" y="146.373" width="105.876" height="55.8393" rx="9.75819" fill="#FDF9FA"/>
<path d="M176.738 160.395V159.405H181.401V160.395H179.663V165.083H178.476V160.395H176.738ZM183.47 165.166C183.032 165.166 182.655 165.077 182.339 164.9C182.025 164.721 181.782 164.467 181.612 164.14C181.442 163.811 181.357 163.422 181.357 162.973C181.357 162.535 181.442 162.151 181.612 161.82C181.782 161.489 182.022 161.231 182.33 161.046C182.641 160.862 183.005 160.769 183.423 160.769C183.704 160.769 183.965 160.814 184.207 160.905C184.451 160.994 184.664 161.128 184.845 161.307C185.028 161.486 185.17 161.712 185.272 161.983C185.373 162.253 185.424 162.569 185.424 162.932V163.256H181.829V162.524H184.313C184.313 162.354 184.276 162.203 184.202 162.072C184.128 161.941 184.025 161.838 183.894 161.764C183.765 161.689 183.614 161.651 183.442 161.651C183.263 161.651 183.104 161.692 182.965 161.776C182.828 161.857 182.721 161.967 182.644 162.105C182.566 162.242 182.526 162.395 182.524 162.563V163.259C182.524 163.469 182.563 163.651 182.641 163.805C182.72 163.958 182.832 164.076 182.976 164.16C183.12 164.243 183.291 164.284 183.489 164.284C183.62 164.284 183.741 164.266 183.85 164.229C183.959 164.192 184.052 164.137 184.13 164.063C184.207 163.989 184.266 163.898 184.307 163.791L185.399 163.863C185.344 164.125 185.23 164.355 185.058 164.55C184.888 164.745 184.668 164.896 184.398 165.005C184.13 165.112 183.821 165.166 183.47 165.166ZM187.106 160.825L187.887 162.313L188.688 160.825H189.9L188.666 162.954L189.933 165.083H188.727L187.887 163.611L187.061 165.083H185.841L187.106 162.954L185.886 160.825H187.106ZM192.866 160.825V161.712H190.302V160.825H192.866ZM190.884 159.804H192.065V163.774C192.065 163.883 192.082 163.968 192.115 164.029C192.148 164.088 192.194 164.13 192.254 164.154C192.315 164.178 192.385 164.19 192.464 164.19C192.52 164.19 192.575 164.185 192.631 164.176C192.686 164.165 192.729 164.157 192.758 164.151L192.944 165.03C192.885 165.049 192.802 165.07 192.694 165.094C192.587 165.12 192.457 165.135 192.303 165.141C192.019 165.152 191.769 165.114 191.555 165.027C191.342 164.94 191.177 164.806 191.059 164.623C190.94 164.44 190.882 164.209 190.884 163.93V159.804ZM200.474 161.393H199.26C199.237 161.236 199.192 161.096 199.124 160.974C199.055 160.851 198.968 160.745 198.86 160.658C198.753 160.571 198.629 160.505 198.489 160.459C198.35 160.413 198.2 160.389 198.037 160.389C197.743 160.389 197.487 160.462 197.269 160.608C197.051 160.753 196.882 160.963 196.762 161.24C196.642 161.516 196.582 161.85 196.582 162.244C196.582 162.649 196.642 162.989 196.762 163.264C196.884 163.54 197.054 163.747 197.272 163.888C197.49 164.028 197.742 164.099 198.029 164.099C198.19 164.099 198.338 164.077 198.475 164.035C198.614 163.992 198.737 163.93 198.844 163.849C198.951 163.766 199.04 163.665 199.11 163.547C199.182 163.429 199.232 163.294 199.26 163.142L200.474 163.148C200.442 163.408 200.364 163.66 200.238 163.902C200.114 164.142 199.947 164.357 199.736 164.548C199.528 164.736 199.278 164.886 198.988 164.997C198.7 165.106 198.373 165.16 198.009 165.16C197.503 165.16 197.05 165.046 196.651 164.817C196.254 164.587 195.939 164.256 195.708 163.821C195.479 163.387 195.365 162.861 195.365 162.244C195.365 161.625 195.481 161.098 195.714 160.664C195.947 160.23 196.263 159.899 196.662 159.671C197.061 159.442 197.51 159.328 198.009 159.328C198.338 159.328 198.643 159.374 198.924 159.466C199.207 159.559 199.457 159.694 199.675 159.871C199.894 160.047 200.071 160.262 200.208 160.517C200.346 160.772 200.435 161.064 200.474 161.393ZM203.236 165.166C202.806 165.166 202.433 165.074 202.119 164.891C201.807 164.707 201.566 164.45 201.396 164.121C201.226 163.79 201.141 163.406 201.141 162.97C201.141 162.53 201.226 162.146 201.396 161.817C201.566 161.486 201.807 161.229 202.119 161.046C202.433 160.862 202.806 160.769 203.236 160.769C203.667 160.769 204.038 160.862 204.351 161.046C204.665 161.229 204.907 161.486 205.077 161.817C205.247 162.146 205.332 162.53 205.332 162.97C205.332 163.406 205.247 163.79 205.077 164.121C204.907 164.45 204.665 164.707 204.351 164.891C204.038 165.074 203.667 165.166 203.236 165.166ZM203.242 164.251C203.438 164.251 203.601 164.196 203.733 164.085C203.864 163.972 203.963 163.819 204.029 163.625C204.098 163.431 204.132 163.21 204.132 162.962C204.132 162.714 204.098 162.494 204.029 162.299C203.963 162.105 203.864 161.952 203.733 161.839C203.601 161.727 203.438 161.67 203.242 161.67C203.044 161.67 202.878 161.727 202.743 161.839C202.61 161.952 202.509 162.105 202.441 162.299C202.374 162.494 202.341 162.714 202.341 162.962C202.341 163.21 202.374 163.431 202.441 163.625C202.509 163.819 202.61 163.972 202.743 164.085C202.878 164.196 203.044 164.251 203.242 164.251ZM207.281 159.405V165.083H206.1V159.405H207.281ZM210.151 165.166C209.72 165.166 209.348 165.074 209.034 164.891C208.721 164.707 208.48 164.45 208.31 164.121C208.14 163.79 208.055 163.406 208.055 162.97C208.055 162.53 208.14 162.146 208.31 161.817C208.48 161.486 208.721 161.229 209.034 161.046C209.348 160.862 209.72 160.769 210.151 160.769C210.582 160.769 210.953 160.862 211.265 161.046C211.58 161.229 211.822 161.486 211.992 161.817C212.162 162.146 212.247 162.53 212.247 162.97C212.247 163.406 212.162 163.79 211.992 164.121C211.822 164.45 211.58 164.707 211.265 164.891C210.953 165.074 210.582 165.166 210.151 165.166ZM210.156 164.251C210.352 164.251 210.516 164.196 210.647 164.085C210.778 163.972 210.877 163.819 210.944 163.625C211.012 163.431 211.046 163.21 211.046 162.962C211.046 162.714 211.012 162.494 210.944 162.299C210.877 162.105 210.778 161.952 210.647 161.839C210.516 161.727 210.352 161.67 210.156 161.67C209.959 161.67 209.792 161.727 209.657 161.839C209.524 161.952 209.424 162.105 209.355 162.299C209.289 162.494 209.256 162.714 209.256 162.962C209.256 163.21 209.289 163.431 209.355 163.625C209.424 163.819 209.524 163.972 209.657 164.085C209.792 164.196 209.959 164.251 210.156 164.251ZM215.745 163.27V160.825H216.926V165.083H215.792V164.309H215.748C215.652 164.559 215.492 164.759 215.268 164.911C215.047 165.062 214.776 165.138 214.456 165.138C214.172 165.138 213.921 165.074 213.705 164.944C213.489 164.815 213.32 164.631 213.198 164.392C213.077 164.154 213.016 163.869 213.015 163.536V160.825H214.196V163.325C214.197 163.577 214.265 163.775 214.398 163.921C214.531 164.067 214.709 164.14 214.933 164.14C215.075 164.14 215.208 164.108 215.332 164.043C215.456 163.977 215.556 163.879 215.632 163.749C215.709 163.62 215.747 163.46 215.745 163.27ZM217.871 165.083V160.825H219.016V161.568H219.06C219.138 161.303 219.268 161.104 219.451 160.969C219.634 160.832 219.845 160.764 220.083 160.764C220.142 160.764 220.206 160.767 220.274 160.775C220.343 160.782 220.403 160.792 220.455 160.805V161.853C220.399 161.837 220.322 161.822 220.224 161.809C220.127 161.796 220.037 161.789 219.956 161.789C219.782 161.789 219.627 161.827 219.49 161.903C219.355 161.977 219.248 162.08 219.168 162.214C219.091 162.347 219.052 162.5 219.052 162.674V165.083H217.871Z" fill="#555555"/>
<g filter="url(#filter6_d_1_1272)">
<path d="M177.433 183.244V177.567H181.192V178.557H178.633V179.909H180.942V180.899H178.633V183.244H177.433ZM181.999 183.244V177.567H185.758V178.557H183.2V179.909H185.509V180.899H183.2V183.244H181.999ZM186.447 182.246V181.301L188.817 177.567H189.632V178.875H189.15L187.655 181.24V181.284H191.024V182.246H186.447ZM189.172 183.244V181.958L189.194 181.539V177.567H190.319V183.244H189.172ZM196.866 179.555H195.652C195.63 179.397 195.584 179.258 195.516 179.136C195.448 179.012 195.36 178.907 195.253 178.82C195.145 178.733 195.022 178.667 194.881 178.62C194.742 178.574 194.592 178.551 194.429 178.551C194.135 178.551 193.879 178.624 193.661 178.77C193.443 178.914 193.274 179.125 193.154 179.402C193.034 179.677 192.974 180.012 192.974 180.406C192.974 180.81 193.034 181.15 193.154 181.426C193.276 181.701 193.446 181.909 193.664 182.05C193.882 182.19 194.134 182.26 194.421 182.26C194.582 182.26 194.73 182.239 194.867 182.196C195.006 182.154 195.129 182.092 195.236 182.011C195.343 181.928 195.432 181.827 195.502 181.709C195.574 181.59 195.624 181.455 195.652 181.304L196.866 181.309C196.835 181.57 196.756 181.821 196.63 182.063C196.507 182.304 196.339 182.519 196.129 182.709C195.92 182.898 195.67 183.048 195.38 183.158C195.092 183.267 194.766 183.322 194.401 183.322C193.895 183.322 193.442 183.207 193.043 182.978C192.646 182.749 192.332 182.417 192.101 181.983C191.871 181.549 191.757 181.023 191.757 180.406C191.757 179.787 191.873 179.26 192.106 178.825C192.339 178.391 192.655 178.06 193.054 177.833C193.453 177.604 193.902 177.489 194.401 177.489C194.73 177.489 195.035 177.535 195.316 177.628C195.599 177.72 195.85 177.855 196.068 178.033C196.286 178.208 196.463 178.424 196.6 178.679C196.738 178.934 196.827 179.226 196.866 179.555ZM199.92 183.369C199.443 183.367 199.032 183.25 198.689 183.017C198.347 182.784 198.083 182.447 197.899 182.005C197.716 181.563 197.625 181.032 197.627 180.411C197.627 179.792 197.718 179.264 197.901 178.828C198.086 178.392 198.35 178.06 198.691 177.833C199.035 177.604 199.445 177.489 199.92 177.489C200.395 177.489 200.803 177.604 201.145 177.833C201.489 178.062 201.753 178.395 201.938 178.831C202.123 179.265 202.214 179.792 202.212 180.411C202.212 181.034 202.12 181.566 201.935 182.008C201.752 182.45 201.49 182.787 201.148 183.02C200.806 183.253 200.396 183.369 199.92 183.369ZM199.92 182.374C200.245 182.374 200.505 182.21 200.699 181.883C200.893 181.556 200.989 181.065 200.987 180.411C200.987 179.981 200.943 179.622 200.854 179.336C200.767 179.049 200.643 178.834 200.482 178.69C200.323 178.545 200.136 178.473 199.92 178.473C199.596 178.473 199.337 178.635 199.143 178.959C198.949 179.282 198.851 179.766 198.85 180.411C198.85 180.847 198.893 181.211 198.98 181.503C199.069 181.794 199.193 182.012 199.354 182.158C199.515 182.302 199.703 182.374 199.92 182.374ZM205.294 183.369C204.817 183.367 204.407 183.25 204.063 183.017C203.721 182.784 203.458 182.447 203.273 182.005C203.09 181.563 203 181.032 203.002 180.411C203.002 179.792 203.093 179.264 203.276 178.828C203.461 178.392 203.724 178.06 204.066 177.833C204.41 177.604 204.819 177.489 205.294 177.489C205.769 177.489 206.178 177.604 206.52 177.833C206.863 178.062 207.128 178.395 207.312 178.831C207.497 179.265 207.589 179.792 207.587 180.411C207.587 181.034 207.494 181.566 207.31 182.008C207.127 182.45 206.864 182.787 206.522 183.02C206.18 183.253 205.771 183.369 205.294 183.369ZM205.294 182.374C205.619 182.374 205.879 182.21 206.073 181.883C206.267 181.556 206.363 181.065 206.362 180.411C206.362 179.981 206.317 179.622 206.228 179.336C206.142 179.049 206.018 178.834 205.857 178.69C205.698 178.545 205.51 178.473 205.294 178.473C204.971 178.473 204.712 178.635 204.518 178.959C204.324 179.282 204.226 179.766 204.224 180.411C204.224 180.847 204.268 181.211 204.354 181.503C204.443 181.794 204.568 182.012 204.729 182.158C204.889 182.302 205.078 182.374 205.294 182.374Z" fill="#041E3A"/>
<circle cx="217.731" cy="180.744" r="5.367" fill="#FF4C00"/>
<rect x="176.461" y="170.986" width="64.892" height="19.5164" rx="4.8791" stroke="#979797" shape-rendering="crispEdges"/>
</g>
</g>
</g>
<defs>
<filter id="filter0_b_1_1272" x="-42.936" y="-42.936" width="434.24" height="304.456" filterUnits="userSpaceOnUse" color-interpolation-filters="sRGB">
<feFlood flood-opacity="0" result="BackgroundImageFix"/>
<feGaussianBlur in="BackgroundImageFix" stdDeviation="21.468"/>
<feComposite in2="SourceAlpha" operator="in" result="effect1_backgroundBlur_1_1272"/>
<feBlend mode="normal" in="SourceGraphic" in2="effect1_backgroundBlur_1_1272" result="shape"/>
</filter>
<filter id="filter1_b_1_1272" x="-11.7098" y="-11.7098" width="371.787" height="242.003" filterUnits="userSpaceOnUse" color-interpolation-filters="sRGB">
<feFlood flood-opacity="0" result="BackgroundImageFix"/>
<feGaussianBlur in="BackgroundImageFix" stdDeviation="5.85491"/>
<feComposite in2="SourceAlpha" operator="in" result="effect1_backgroundBlur_1_1272"/>
<feBlend mode="normal" in="SourceGraphic" in2="effect1_backgroundBlur_1_1272" result="shape"/>
</filter>
<filter id="filter2_d_1_1272" x="152.621" y="35.6721" width="139.041" height="81.9558" filterUnits="userSpaceOnUse" color-interpolation-filters="sRGB">
<feFlood flood-opacity="0" result="BackgroundImageFix"/>
<feColorMatrix in="SourceAlpha" type="matrix" values="0 0 0 0 0 0 0 0 0 0 0 0 0 0 0 0 0 0 127 0" result="hardAlpha"/>
<feOffset dy="2"/>
<feGaussianBlur stdDeviation="15"/>
<feComposite in2="hardAlpha" operator="out"/>
<feColorMatrix type="matrix" values="0 0 0 0 0.683333 0 0 0 0 0.683333 0 0 0 0 0.683333 0 0 0 0.2 0"/>
<feBlend mode="normal" in2="BackgroundImageFix" result="effect1_dropShadow_1_1272"/>
<feBlend mode="normal" in="SourceGraphic" in2="effect1_dropShadow_1_1272" result="shape"/>
</filter>
<filter id="filter3_d_1_1272" x="231.906" y="35.6721" width="89.2747" height="81.9558" filterUnits="userSpaceOnUse" color-interpolation-filters="sRGB">
<feFlood flood-opacity="0" result="BackgroundImageFix"/>
<feColorMatrix in="SourceAlpha" type="matrix" values="0 0 0 0 0 0 0 0 0 0 0 0 0 0 0 0 0 0 127 0" result="hardAlpha"/>
<feOffset dy="2"/>
<feGaussianBlur stdDeviation="15"/>
<feComposite in2="hardAlpha" operator="out"/>
<feColorMatrix type="matrix" values="0 0 0 0 0.683333 0 0 0 0 0.683333 0 0 0 0 0.683333 0 0 0 0.2 0"/>
<feBlend mode="normal" in2="BackgroundImageFix" result="effect1_dropShadow_1_1272"/>
<feBlend mode="normal" in="SourceGraphic" in2="effect1_dropShadow_1_1272" result="shape"/>
</filter>
<filter id="filter4_d_1_1272" x="258.01" y="35.6721" width="89.2747" height="81.9558" filterUnits="userSpaceOnUse" color-interpolation-filters="sRGB">
<feFlood flood-opacity="0" result="BackgroundImageFix"/>
<feColorMatrix in="SourceAlpha" type="matrix" values="0 0 0 0 0 0 0 0 0 0 0 0 0 0 0 0 0 0 127 0" result="hardAlpha"/>
<feOffset dy="2"/>
<feGaussianBlur stdDeviation="15"/>
<feComposite in2="hardAlpha" operator="out"/>
<feColorMatrix type="matrix" values="0 0 0 0 0.683333 0 0 0 0 0.683333 0 0 0 0 0.683333 0 0 0 0.2 0"/>
<feBlend mode="normal" in2="BackgroundImageFix" result="effect1_dropShadow_1_1272"/>
<feBlend mode="normal" in="SourceGraphic" in2="effect1_dropShadow_1_1272" result="shape"/>
</filter>
<filter id="filter5_d_1_1272" x="16.5889" y="157.325" width="94.1665" height="48.7909" filterUnits="userSpaceOnUse" color-interpolation-filters="sRGB">
<feFlood flood-opacity="0" result="BackgroundImageFix"/>
<feColorMatrix in="SourceAlpha" type="matrix" values="0 0 0 0 0 0 0 0 0 0 0 0 0 0 0 0 0 0 127 0" result="hardAlpha"/>
<feOffset dy="0.975819"/>
<feGaussianBlur stdDeviation="7.31864"/>
<feComposite in2="hardAlpha" operator="out"/>
<feColorMatrix type="matrix" values="0 0 0 0 0.683333 0 0 0 0 0.683333 0 0 0 0 0.683333 0 0 0 0.2 0"/>
<feBlend mode="normal" in2="BackgroundImageFix" result="effect1_dropShadow_1_1272"/>
<feBlend mode="normal" in="SourceGraphic" in2="effect1_dropShadow_1_1272" result="shape"/>
</filter>
<filter id="filter6_d_1_1272" x="161.824" y="157.325" width="94.1664" height="48.7909" filterUnits="userSpaceOnUse" color-interpolation-filters="sRGB">
<feFlood flood-opacity="0" result="BackgroundImageFix"/>
<feColorMatrix in="SourceAlpha" type="matrix" values="0 0 0 0 0 0 0 0 0 0 0 0 0 0 0 0 0 0 127 0" result="hardAlpha"/>
<feOffset dy="0.975819"/>
<feGaussianBlur stdDeviation="7.31864"/>
<feComposite in2="hardAlpha" operator="out"/>
<feColorMatrix type="matrix" values="0 0 0 0 0.683333 0 0 0 0 0.683333 0 0 0 0 0.683333 0 0 0 0.2 0"/>
<feBlend mode="normal" in2="BackgroundImageFix" result="effect1_dropShadow_1_1272"/>
<feBlend mode="normal" in="SourceGraphic" in2="effect1_dropShadow_1_1272" result="shape"/>
</filter>
<linearGradient id="paint0_linear_1_1272" x1="173.696" y1="41.9601" x2="173.696" y2="112.707" gradientUnits="userSpaceOnUse">
<stop offset="0.378781" stop-color="#6366F1"/>
<stop offset="0.524623" stop-color="#6C70F3" stop-opacity="0.891672"/>
<stop offset="1" stop-color="#9AA4FF" stop-opacity="0.32"/>
</linearGradient>
<clipPath id="clip0_1_1272">
<rect width="348" height="219" fill="white"/>
</clipPath>
</defs>
</svg>
