<svg width="348" height="257" viewBox="0 0 348 257" fill="none" xmlns="http://www.w3.org/2000/svg">
<g clip-path="url(#clip0_1_1202)">
<rect width="348" height="257" fill="white"/>
<g filter="url(#filter0_b_1_1202)">
<g filter="url(#filter1_b_1_1202)">
<rect width="348.367" height="256.64" rx="24.2483" fill="white" fill-opacity="0.69"/>
</g>
<rect x="148.462" y="57.1199" width="121.242" height="8.89105" rx="4.44552" fill="#9AA4FF" fill-opacity="0.62"/>
<rect x="148.462" y="71.6687" width="97.8015" height="8.89105" rx="4.44552" fill="#9AA4FF" fill-opacity="0.32"/>
<g clip-path="url(#clip1_1_1202)">
<rect x="47.3315" y="37.6731" width="89.76" height="50.504" rx="5.65794" fill="url(#paint0_linear_1_1202)"/>
<path d="M85.2589 53.936V71.0171L99.1373 62.4766L85.2589 53.936Z" stroke="white" stroke-width="2.13514" stroke-linecap="round" stroke-linejoin="round"/>
<rect x="49.0206" y="74.2832" width="16.1472" height="12" rx="4.2075" fill="white"/>
<path d="M52.5478 82.2832V81.6616L54.0001 80.3169C54.1236 80.1974 54.2272 80.0898 54.3109 79.9942C54.3959 79.8986 54.4603 79.8049 54.5041 79.7133C54.548 79.6203 54.5699 79.52 54.5699 79.4125C54.5699 79.2929 54.5426 79.19 54.4882 79.1037C54.4337 79.016 54.3594 78.9489 54.2651 78.9025C54.1708 78.8547 54.0638 78.8307 53.9443 78.8307C53.8195 78.8307 53.7106 78.856 53.6176 78.9064C53.5246 78.9569 53.4529 79.0293 53.4024 79.1236C53.352 79.2179 53.3267 79.3301 53.3267 79.4603H52.508C52.508 79.1933 52.5684 78.9616 52.6892 78.765C52.8101 78.5684 52.9794 78.4164 53.1972 78.3088C53.4151 78.2012 53.6661 78.1474 53.9503 78.1474C54.2425 78.1474 54.4968 78.1992 54.7133 78.3028C54.9311 78.4051 55.1005 78.5472 55.2213 78.7291C55.3422 78.9111 55.4026 79.1196 55.4026 79.3547C55.4026 79.5088 55.3721 79.6608 55.311 79.8109C55.2512 79.961 55.1443 80.1277 54.9902 80.3109C54.8362 80.4929 54.619 80.7114 54.3388 80.9664L53.7431 81.5501V81.578H55.4564V82.2832H52.5478ZM56.0814 82.2832V81.6616L57.5337 80.3169C57.6573 80.1974 57.7608 80.0898 57.8445 79.9942C57.9295 79.8986 57.9939 79.8049 58.0378 79.7133C58.0816 79.6203 58.1035 79.52 58.1035 79.4125C58.1035 79.2929 58.0763 79.19 58.0218 79.1037C57.9674 79.016 57.893 78.9489 57.7987 78.9025C57.7044 78.8547 57.5975 78.8307 57.478 78.8307C57.3531 78.8307 57.2442 78.856 57.1512 78.9064C57.0583 78.9569 56.9866 79.0293 56.9361 79.1236C56.8856 79.2179 56.8604 79.3301 56.8604 79.4603H56.0416C56.0416 79.1933 56.102 78.9616 56.2229 78.765C56.3437 78.5684 56.5131 78.4164 56.7309 78.3088C56.9487 78.2012 57.1997 78.1474 57.4839 78.1474C57.7761 78.1474 58.0305 78.1992 58.2469 78.3028C58.4648 78.4051 58.6341 78.5472 58.755 78.7291C58.8758 78.9111 58.9362 79.1196 58.9362 79.3547C58.9362 79.5088 58.9057 79.6608 58.8446 79.8109C58.7848 79.961 58.6779 80.1277 58.5239 80.3109C58.3698 80.4929 58.1526 80.7114 57.8724 80.9664L57.2767 81.5501V81.578H58.99V82.2832H56.0814ZM62.1691 80.0958L61.3921 80.1436C61.3788 80.0772 61.3503 80.0174 61.3064 79.9643C61.2626 79.9098 61.2048 79.8667 61.1331 79.8348C61.0627 79.8016 60.9784 79.785 60.8801 79.785C60.7486 79.785 60.6377 79.8129 60.5474 79.8687C60.4571 79.9231 60.412 79.9962 60.412 80.0878C60.412 80.1609 60.4412 80.2226 60.4996 80.2731C60.558 80.3236 60.6583 80.3641 60.8004 80.3946L61.3543 80.5062C61.6518 80.5673 61.8736 80.6655 62.0196 80.801C62.1657 80.9365 62.2388 81.1145 62.2388 81.3349C62.2388 81.5355 62.1797 81.7114 62.0615 81.8629C61.9446 82.0143 61.7839 82.1325 61.5794 82.2175C61.3762 82.3011 61.1418 82.343 60.8761 82.343C60.4711 82.343 60.1483 82.2586 59.9079 82.09C59.6689 81.92 59.5287 81.6889 59.4876 81.3967L60.3223 81.3529C60.3475 81.4764 60.4086 81.5707 60.5056 81.6357C60.6025 81.6995 60.7267 81.7314 60.8781 81.7314C61.0269 81.7314 61.1464 81.7028 61.2367 81.6457C61.3284 81.5873 61.3748 81.5122 61.3762 81.4206C61.3748 81.3436 61.3423 81.2805 61.2786 81.2313C61.2148 81.1809 61.1165 81.1423 60.9837 81.1158L60.4538 81.0102C60.155 80.9504 59.9325 80.8468 59.7864 80.6994C59.6416 80.552 59.5693 80.3641 59.5693 80.1356C59.5693 79.9391 59.6224 79.7697 59.7286 79.6276C59.8362 79.4855 59.987 79.3759 60.1809 79.2989C60.3761 79.2219 60.6045 79.1834 60.8662 79.1834C61.2527 79.1834 61.5568 79.265 61.7786 79.4284C62.0017 79.5918 62.1319 79.8142 62.1691 80.0958Z" fill="#6A6DF2"/>
</g>
<rect x="148.462" y="43.3792" width="150.34" height="8.89105" rx="4.44552" fill="#9AA4FF" fill-opacity="0.8"/>
<rect x="148.462" y="125.823" width="121.242" height="8.89105" rx="4.44552" fill="#9AA4FF" fill-opacity="0.32"/>
<rect x="148.462" y="140.372" width="97.8015" height="8.89105" rx="4.44552" fill="#9AA4FF" fill-opacity="0.32"/>
<g clip-path="url(#clip2_1_1202)">
<rect x="47.3315" y="106.377" width="89.76" height="50.504" rx="5.65794" fill="url(#paint1_linear_1_1202)"/>
<path d="M85.2589 123.219V140.3L99.1373 131.76L85.2589 123.219Z" stroke="white" stroke-width="2.13514" stroke-linecap="round" stroke-linejoin="round"/>
<rect x="49.0206" y="142.591" width="16.1472" height="12" rx="4.2075" fill="#FDFDFD"/>
<path d="M52.5477 150.591V149.969L54 148.624C54.1235 148.505 54.2271 148.397 54.3108 148.302C54.3958 148.206 54.4602 148.112 54.504 148.021C54.5478 147.928 54.5697 147.827 54.5697 147.72C54.5697 147.6 54.5425 147.497 54.4881 147.411C54.4336 147.323 54.3592 147.256 54.2649 147.21C54.1706 147.162 54.0637 147.138 53.9442 147.138C53.8194 147.138 53.7104 147.163 53.6175 147.214C53.5245 147.264 53.4528 147.337 53.4023 147.431C53.3519 147.525 53.3266 147.637 53.3266 147.768H52.5078C52.5078 147.501 52.5683 147.269 52.6891 147.072C52.81 146.876 52.9793 146.724 53.1971 146.616C53.4149 146.509 53.666 146.455 53.9502 146.455C54.2424 146.455 54.4967 146.507 54.7132 146.61C54.931 146.712 55.1003 146.855 55.2212 147.037C55.342 147.218 55.4025 147.427 55.4025 147.662C55.4025 147.816 55.3719 147.968 55.3108 148.118C55.2511 148.268 55.1442 148.435 54.9901 148.618C54.836 148.8 54.6189 149.019 54.3386 149.274L53.743 149.857V149.885H55.4563V150.591H52.5477ZM56.0813 150.591V149.969L57.5336 148.624C57.6571 148.505 57.7607 148.397 57.8444 148.302C57.9294 148.206 57.9938 148.112 58.0376 148.021C58.0815 147.928 58.1034 147.827 58.1034 147.72C58.1034 147.6 58.0762 147.497 58.0217 147.411C57.9673 147.323 57.8929 147.256 57.7986 147.21C57.7043 147.162 57.5974 147.138 57.4778 147.138C57.353 147.138 57.2441 147.163 57.1511 147.214C57.0581 147.264 56.9864 147.337 56.936 147.431C56.8855 147.525 56.8603 147.637 56.8603 147.768H56.0415C56.0415 147.501 56.1019 147.269 56.2228 147.072C56.3436 146.876 56.513 146.724 56.7308 146.616C56.9486 146.509 57.1996 146.455 57.4838 146.455C57.776 146.455 58.0303 146.507 58.2468 146.61C58.4646 146.712 58.634 146.855 58.7548 147.037C58.8757 147.218 58.9361 147.427 58.9361 147.662C58.9361 147.816 58.9056 147.968 58.8445 148.118C58.7847 148.268 58.6778 148.435 58.5237 148.618C58.3697 148.8 58.1525 149.019 57.8723 149.274L57.2766 149.857V149.885H58.9899V150.591H56.0813ZM62.1689 148.403L61.392 148.451C61.3787 148.385 61.3501 148.325 61.3063 148.272C61.2625 148.217 61.2047 148.174 61.133 148.142C61.0626 148.109 60.9783 148.092 60.88 148.092C60.7485 148.092 60.6376 148.12 60.5473 148.176C60.457 148.23 60.4118 148.304 60.4118 148.395C60.4118 148.468 60.441 148.53 60.4995 148.58C60.5579 148.631 60.6582 148.671 60.8003 148.702L61.3541 148.814C61.6516 148.875 61.8734 148.973 62.0195 149.108C62.1656 149.244 62.2387 149.422 62.2387 149.642C62.2387 149.843 62.1796 150.019 62.0614 150.17C61.9445 150.322 61.7838 150.44 61.5793 150.525C61.376 150.609 61.1416 150.65 60.876 150.65C60.4709 150.65 60.1482 150.566 59.9078 150.397C59.6687 150.227 59.5286 149.996 59.4875 149.704L60.3222 149.66C60.3474 149.784 60.4085 149.878 60.5055 149.943C60.6024 150.007 60.7266 150.039 60.878 150.039C61.0268 150.039 61.1463 150.01 61.2366 149.953C61.3282 149.895 61.3747 149.82 61.376 149.728C61.3747 149.651 61.3422 149.588 61.2784 149.539C61.2147 149.488 61.1164 149.45 60.9836 149.423L60.4537 149.318C60.1548 149.258 59.9324 149.154 59.7863 149.007C59.6415 148.859 59.5691 148.671 59.5691 148.443C59.5691 148.246 59.6223 148.077 59.7285 147.935C59.8361 147.793 59.9868 147.683 60.1807 147.606C60.376 147.529 60.6044 147.491 60.866 147.491C61.2525 147.491 61.5567 147.572 61.7785 147.736C62.0016 147.899 62.1318 148.122 62.1689 148.403Z" fill="#6366F1"/>
</g>
<rect x="148.462" y="112.083" width="150.34" height="8.89105" rx="4.44552" fill="#9AA4FF" fill-opacity="0.32"/>
<rect x="148.462" y="194.527" width="121.242" height="8.89105" rx="4.44552" fill="#9AA4FF" fill-opacity="0.32"/>
<rect x="148.462" y="209.076" width="97.8015" height="8.89105" rx="4.44552" fill="#9AA4FF" fill-opacity="0.32"/>
<g clip-path="url(#clip3_1_1202)">
<rect x="47.3315" y="175.08" width="89.76" height="50.504" rx="5.65794" fill="url(#paint2_linear_1_1202)"/>
<path d="M85.2589 191.526V208.607L99.1373 200.067L85.2589 191.526Z" stroke="white" stroke-width="2.13514" stroke-linecap="round" stroke-linejoin="round"/>
<rect x="49.0206" y="211.874" width="16.1472" height="12" rx="4.2075" fill="white"/>
<path d="M52.5477 219.874V219.252L54 217.907C54.1235 217.788 54.2271 217.68 54.3108 217.585C54.3958 217.489 54.4602 217.395 54.504 217.304C54.5478 217.211 54.5697 217.111 54.5697 217.003C54.5697 216.884 54.5425 216.781 54.4881 216.694C54.4336 216.607 54.3592 216.54 54.2649 216.493C54.1706 216.445 54.0637 216.421 53.9442 216.421C53.8194 216.421 53.7104 216.447 53.6175 216.497C53.5245 216.547 53.4528 216.62 53.4023 216.714C53.3519 216.808 53.3266 216.921 53.3266 217.051H52.5078C52.5078 216.784 52.5683 216.552 52.6891 216.356C52.81 216.159 52.9793 216.007 53.1971 215.899C53.4149 215.792 53.666 215.738 53.9502 215.738C54.2424 215.738 54.4967 215.79 54.7132 215.893C54.931 215.996 55.1003 216.138 55.2212 216.32C55.342 216.502 55.4025 216.71 55.4025 216.945C55.4025 217.099 55.3719 217.251 55.3108 217.401C55.2511 217.552 55.1442 217.718 54.9901 217.902C54.836 218.083 54.6189 218.302 54.3386 218.557L53.743 219.141V219.169H55.4563V219.874H52.5477ZM56.0813 219.874V219.252L57.5336 217.907C57.6571 217.788 57.7607 217.68 57.8444 217.585C57.9294 217.489 57.9938 217.395 58.0376 217.304C58.0815 217.211 58.1034 217.111 58.1034 217.003C58.1034 216.884 58.0762 216.781 58.0217 216.694C57.9673 216.607 57.8929 216.54 57.7986 216.493C57.7043 216.445 57.5974 216.421 57.4778 216.421C57.353 216.421 57.2441 216.447 57.1511 216.497C57.0581 216.547 56.9864 216.62 56.936 216.714C56.8855 216.808 56.8603 216.921 56.8603 217.051H56.0415C56.0415 216.784 56.1019 216.552 56.2228 216.356C56.3436 216.159 56.513 216.007 56.7308 215.899C56.9486 215.792 57.1996 215.738 57.4838 215.738C57.776 215.738 58.0303 215.79 58.2468 215.893C58.4646 215.996 58.634 216.138 58.7548 216.32C58.8757 216.502 58.9361 216.71 58.9361 216.945C58.9361 217.099 58.9056 217.251 58.8445 217.401C58.7847 217.552 58.6778 217.718 58.5237 217.902C58.3697 218.083 58.1525 218.302 57.8723 218.557L57.2766 219.141V219.169H58.9899V219.874H56.0813ZM62.1689 217.686L61.392 217.734C61.3787 217.668 61.3501 217.608 61.3063 217.555C61.2625 217.5 61.2047 217.457 61.133 217.425C61.0626 217.392 60.9783 217.376 60.88 217.376C60.7485 217.376 60.6376 217.403 60.5473 217.459C60.457 217.514 60.4118 217.587 60.4118 217.678C60.4118 217.751 60.441 217.813 60.4995 217.864C60.5579 217.914 60.6582 217.955 60.8003 217.985L61.3541 218.097C61.6516 218.158 61.8734 218.256 62.0195 218.392C62.1656 218.527 62.2387 218.705 62.2387 218.925C62.2387 219.126 62.1796 219.302 62.0614 219.453C61.9445 219.605 61.7838 219.723 61.5793 219.808C61.376 219.892 61.1416 219.934 60.876 219.934C60.4709 219.934 60.1482 219.849 59.9078 219.681C59.6687 219.511 59.5286 219.279 59.4875 218.987L60.3222 218.943C60.3474 219.067 60.4085 219.161 60.5055 219.226C60.6024 219.29 60.7266 219.322 60.878 219.322C61.0268 219.322 61.1463 219.293 61.2366 219.236C61.3282 219.178 61.3747 219.103 61.376 219.011C61.3747 218.934 61.3422 218.871 61.2784 218.822C61.2147 218.771 61.1164 218.733 60.9836 218.706L60.4537 218.601C60.1548 218.541 59.9324 218.437 59.7863 218.29C59.6415 218.143 59.5691 217.955 59.5691 217.726C59.5691 217.53 59.6223 217.36 59.7285 217.218C59.8361 217.076 59.9868 216.967 60.1807 216.889C60.376 216.812 60.6044 216.774 60.866 216.774C61.2525 216.774 61.5567 216.856 61.7785 217.019C62.0016 217.182 62.1318 217.405 62.1689 217.686Z" fill="#6366F1"/>
</g>
<rect x="148.462" y="180.786" width="150.34" height="8.89105" rx="4.44552" fill="#9AA4FF" fill-opacity="0.32"/>
</g>
</g>
<defs>
<filter id="filter0_b_1_1202" x="-42.936" y="-42.936" width="434.24" height="342.512" filterUnits="userSpaceOnUse" color-interpolation-filters="sRGB">
<feFlood flood-opacity="0" result="BackgroundImageFix"/>
<feGaussianBlur in="BackgroundImageFix" stdDeviation="21.468"/>
<feComposite in2="SourceAlpha" operator="in" result="effect1_backgroundBlur_1_1202"/>
<feBlend mode="normal" in="SourceGraphic" in2="effect1_backgroundBlur_1_1202" result="shape"/>
</filter>
<filter id="filter1_b_1_1202" x="-19.3986" y="-19.3986" width="387.165" height="295.438" filterUnits="userSpaceOnUse" color-interpolation-filters="sRGB">
<feFlood flood-opacity="0" result="BackgroundImageFix"/>
<feGaussianBlur in="BackgroundImageFix" stdDeviation="9.69932"/>
<feComposite in2="SourceAlpha" operator="in" result="effect1_backgroundBlur_1_1202"/>
<feBlend mode="normal" in="SourceGraphic" in2="effect1_backgroundBlur_1_1202" result="shape"/>
</filter>
<linearGradient id="paint0_linear_1_1202" x1="92.2115" y1="37.6731" x2="92.2115" y2="88.1771" gradientUnits="userSpaceOnUse">
<stop stop-color="#6366F1" stop-opacity="0"/>
<stop offset="0.42045" stop-color="#6366F1" stop-opacity="0.410033"/>
<stop offset="1" stop-color="#6366F1"/>
</linearGradient>
<linearGradient id="paint1_linear_1_1202" x1="92.2115" y1="106.377" x2="92.2115" y2="156.881" gradientUnits="userSpaceOnUse">
<stop stop-color="#6366F1" stop-opacity="0"/>
<stop offset="1" stop-color="#6366F1"/>
</linearGradient>
<linearGradient id="paint2_linear_1_1202" x1="92.2115" y1="175.08" x2="92.2115" y2="225.584" gradientUnits="userSpaceOnUse">
<stop stop-color="#6366F1" stop-opacity="0"/>
<stop offset="1" stop-color="#6366F1"/>
</linearGradient>
<clipPath id="clip0_1_1202">
<rect width="348" height="257" fill="white"/>
</clipPath>
<clipPath id="clip1_1_1202">
<rect x="47.3315" y="37.6731" width="89.76" height="50.504" rx="4.2075" fill="white"/>
</clipPath>
<clipPath id="clip2_1_1202">
<rect x="47.3315" y="106.377" width="89.76" height="50.504" rx="4.2075" fill="white"/>
</clipPath>
<clipPath id="clip3_1_1202">
<rect x="47.3315" y="175.08" width="89.76" height="50.504" rx="4.2075" fill="white"/>
</clipPath>
</defs>
</svg>
