<svg width="405" height="183" viewBox="0 0 405 183" fill="none" xmlns="http://www.w3.org/2000/svg">
<g clip-path="url(#clip0_1_1233)">
<rect width="405" height="183" fill="white"/>
<g filter="url(#filter0_b_1_1233)">
<g filter="url(#filter1_b_1_1233)">
<rect width="405.941" height="183.454" rx="24.6523" fill="white" fill-opacity="0.69"/>
</g>
<rect x="43.9119" y="20.0264" width="35.9512" height="150.995" rx="17.9756" fill="white" fill-opacity="0.8"/>
<path d="M57.3208 38.3658C56.9999 38.0449 56.9999 37.5246 57.3208 37.2036L58.35 36.1745C58.6709 35.8536 59.1912 35.8536 59.5121 36.1745L60.5413 37.2036C60.8622 37.5246 60.8622 38.0449 60.5413 38.3658L59.5121 39.3949C59.1912 39.7158 58.6709 39.7158 58.35 39.3949L57.3208 38.3658Z" fill="#4D5DF1"/>
<path d="M60.06 41.1049C59.7391 40.784 59.7391 40.2637 60.06 39.9428L61.0892 38.9137C61.4101 38.5928 61.9304 38.5928 62.2513 38.9137L63.2805 39.9428C63.6014 40.2637 63.6014 40.784 63.2805 41.1049L62.2513 42.1341C61.9304 42.455 61.4101 42.455 61.0892 42.1341L60.06 41.1049Z" fill="#4D5DF1"/>
<path d="M60.06 35.6266C59.7391 35.3057 59.7391 34.7854 60.06 34.4645L61.0892 33.4353C61.4101 33.1144 61.9304 33.1144 62.2513 33.4353L63.2805 34.4645C63.6014 34.7854 63.6014 35.3057 63.2805 35.6266L62.2513 36.6557C61.9304 36.9767 61.4101 36.9767 61.0892 36.6557L60.06 35.6266Z" fill="#4D5DF1"/>
<path d="M62.7991 38.3658C62.4782 38.0449 62.4782 37.5246 62.7991 37.2036L63.8283 36.1745C64.1492 35.8536 64.6695 35.8536 64.9904 36.1745L66.0196 37.2036C66.3405 37.5246 66.3405 38.0449 66.0196 38.3658L64.9904 39.3949C64.6695 39.7158 64.1492 39.7158 63.8283 39.3949L62.7991 38.3658Z" fill="#4D5DF1"/>
<path d="M61.8877 52.0648L59.5155 54.437L61.8877 56.8092L64.2599 54.437L61.8877 52.0648ZM61.8877 136.611L64.2599 132.503L59.5155 132.503L61.8877 136.611ZM61.4768 54.437L61.4768 132.913L62.2986 132.913L62.2986 54.437L61.4768 54.437Z" fill="#4D5DF1"/>
<path d="M57.3208 153.41C56.9999 153.089 56.9999 152.568 57.3208 152.248L58.35 151.218C58.6709 150.898 59.1912 150.898 59.5121 151.218L60.5413 152.248C60.8622 152.568 60.8622 153.089 60.5413 153.41L59.5121 154.439C59.1912 154.76 58.6709 154.76 58.35 154.439L57.3208 153.41Z" fill="#4D5DF1"/>
<path d="M60.06 156.149C59.7391 155.828 59.7391 155.308 60.06 154.987L61.0892 153.958C61.4101 153.637 61.9304 153.637 62.2513 153.958L63.2805 154.987C63.6014 155.308 63.6014 155.828 63.2805 156.149L62.2513 157.178C61.9304 157.499 61.4101 157.499 61.0892 157.178L60.06 156.149Z" fill="#4D5DF1"/>
<path d="M60.06 150.671C59.7391 150.35 59.7391 149.829 60.06 149.508L61.0892 148.479C61.4101 148.158 61.9304 148.158 62.2513 148.479L63.2805 149.508C63.6014 149.829 63.6014 150.35 63.2805 150.671L62.2513 151.7C61.9304 152.021 61.4101 152.021 61.0892 151.7L60.06 150.671Z" fill="#4D5DF1"/>
<path d="M62.7991 153.41C62.4782 153.089 62.4782 152.568 62.7991 152.248L63.8283 151.218C64.1492 150.898 64.6695 150.898 64.9904 151.218L66.0196 152.248C66.3405 152.568 66.3405 153.089 66.0196 153.41L64.9904 154.439C64.6695 154.76 64.1492 154.76 63.8283 154.439L62.7991 153.41Z" fill="#4D5DF1"/>
<rect x="92.7029" y="24.3955" width="106.827" height="65.7394" rx="16.4348" fill="white" fill-opacity="0.7"/>
<path fill-rule="evenodd" clip-rule="evenodd" d="M120.645 50.6911C119.738 50.6911 119.002 51.4269 119.002 52.3346C119.002 53.2422 119.738 53.9781 120.645 53.9781C121.085 53.9781 121.484 53.8054 121.779 53.5242C121.788 53.5146 121.797 53.505 121.806 53.4957C121.816 53.4864 121.825 53.4773 121.835 53.4685C122.116 53.1736 122.289 52.7742 122.289 52.3346C122.289 51.4269 121.553 50.6911 120.645 50.6911ZM123.477 54.0043C123.766 53.515 123.932 52.9442 123.932 52.3346C123.932 50.5192 122.461 49.0476 120.645 49.0476C118.83 49.0476 117.358 50.5192 117.358 52.3346C117.358 54.1499 118.83 55.6215 120.645 55.6215C121.255 55.6215 121.826 55.4556 122.315 55.1664L124.414 57.2651L122.315 59.3636C121.826 59.0745 121.255 58.9085 120.645 58.9085C118.83 58.9085 117.358 60.3801 117.358 62.1955C117.358 64.0108 118.83 65.4825 120.645 65.4825C122.461 65.4825 123.932 64.0108 123.932 62.1955C123.932 61.5859 123.766 61.0151 123.477 60.5258L126.149 57.8537C126.152 57.8512 126.154 57.8487 126.157 57.8462C126.16 57.8437 126.162 57.8411 126.164 57.8386L132.731 51.2722C133.052 50.9512 133.052 50.4309 132.731 50.11C132.41 49.7891 131.89 49.7891 131.569 50.11L125.576 56.103L123.477 54.0043ZM120.645 60.552C119.738 60.552 119.002 61.2878 119.002 62.1955C119.002 63.1032 119.738 63.839 120.645 63.839C121.553 63.839 122.289 63.1032 122.289 62.1955C122.289 61.7562 122.116 61.3571 121.836 61.0623C121.826 61.0533 121.816 61.044 121.806 61.0345C121.797 61.0249 121.788 61.0151 121.779 61.0052C121.484 60.7244 121.085 60.552 120.645 60.552ZM127.024 58.7224C127.345 58.4012 127.865 58.4007 128.186 58.7214L132.73 63.2574C133.051 63.578 133.052 64.0983 132.731 64.4195C132.411 64.7407 131.89 64.7412 131.569 64.4205L127.025 59.8845C126.704 59.5639 126.703 59.0436 127.024 58.7224Z" fill="#4F46E5"/>
<rect x="150.227" y="40.8301" width="32.8697" height="32.8697" rx="11.5044" fill="url(#paint0_linear_1_1233)"/>
<path fill-rule="evenodd" clip-rule="evenodd" d="M161.733 50.6911C160.825 50.6911 160.089 51.4269 160.089 52.3346C160.089 53.2422 160.825 53.9781 161.733 53.9781C162.172 53.9781 162.572 53.8054 162.866 53.5242C162.875 53.5146 162.884 53.505 162.894 53.4957C162.903 53.4864 162.913 53.4773 162.922 53.4685C163.203 53.1736 163.376 52.7742 163.376 52.3346C163.376 51.4269 162.64 50.6911 161.733 50.6911ZM164.564 54.0043C164.854 53.515 165.019 52.9442 165.019 52.3346C165.019 50.5192 163.548 49.0476 161.733 49.0476C159.917 49.0476 158.446 50.5192 158.446 52.3346C158.446 54.1499 159.917 55.6215 161.733 55.6215C162.342 55.6215 162.913 55.4556 163.402 55.1664L165.501 57.2651L163.402 59.3636C162.913 59.0745 162.342 58.9085 161.733 58.9085C159.917 58.9085 158.446 60.3801 158.446 62.1955C158.446 64.0108 159.917 65.4825 161.733 65.4825C163.548 65.4825 165.019 64.0108 165.019 62.1955C165.019 61.5859 164.854 61.0151 164.564 60.5258L167.237 57.8537C167.239 57.8512 167.242 57.8487 167.244 57.8462C167.247 57.8437 167.249 57.8411 167.252 57.8386L173.818 51.2722C174.139 50.9512 174.139 50.4309 173.818 50.11C173.497 49.7891 172.977 49.7891 172.656 50.11L166.663 56.103L164.564 54.0043ZM161.733 60.552C160.825 60.552 160.089 61.2878 160.089 62.1955C160.089 63.1032 160.825 63.839 161.733 63.839C162.64 63.839 163.376 63.1032 163.376 62.1955C163.376 61.7562 163.204 61.3571 162.923 61.0623C162.913 61.0533 162.903 61.044 162.894 61.0345C162.884 61.0249 162.875 61.0151 162.866 61.0052C162.571 60.7244 162.172 60.552 161.733 60.552ZM168.111 58.7224C168.432 58.4012 168.952 58.4007 169.273 58.7214L173.817 63.2574C174.139 63.578 174.139 64.0983 173.818 64.4195C173.498 64.7407 172.978 64.7412 172.656 64.4205L168.112 59.8845C167.791 59.5639 167.79 59.0436 168.111 58.7224Z" fill="black"/>
<rect x="92.7029" y="24.3955" width="106.827" height="65.7394" rx="16.4348" stroke="#4D5DF1" stroke-width="0.821742" stroke-linecap="round" stroke-linejoin="round" stroke-dasharray="4.11 4.11"/>
<rect x="92.7029" y="123.004" width="219.559" height="44.1146" rx="22.0573" fill="#F1F1F1" fill-opacity="0.7"/>
<path fill-rule="evenodd" clip-rule="evenodd" d="M112.39 139.218C111.625 139.218 111.006 139.837 111.006 140.602C111.006 141.366 111.625 141.986 112.39 141.986C112.76 141.986 113.096 141.84 113.344 141.604C113.352 141.596 113.359 141.587 113.367 141.579C113.375 141.571 113.383 141.564 113.392 141.556C113.628 141.308 113.774 140.972 113.774 140.602C113.774 139.837 113.154 139.218 112.39 139.218ZM114.774 142.008C115.018 141.596 115.158 141.115 115.158 140.602C115.158 139.073 113.918 137.834 112.39 137.834C110.861 137.834 109.622 139.073 109.622 140.602C109.622 142.13 110.861 143.37 112.39 143.37C112.903 143.37 113.384 143.23 113.796 142.986L115.563 144.754L113.796 146.521C113.384 146.277 112.903 146.138 112.39 146.138C110.861 146.138 109.622 147.377 109.622 148.906C109.622 150.434 110.861 151.674 112.39 151.674C113.918 151.674 115.158 150.434 115.158 148.906C115.158 148.392 115.018 147.912 114.774 147.5L122.567 139.707C122.837 139.437 122.837 138.999 122.567 138.728C122.297 138.458 121.858 138.458 121.588 138.728L116.542 143.775L114.774 142.008ZM112.39 147.522C111.625 147.522 111.006 148.141 111.006 148.906C111.006 149.67 111.625 150.29 112.39 150.29C113.154 150.29 113.774 149.67 113.774 148.906C113.774 148.536 113.629 148.2 113.392 147.952C113.384 147.944 113.375 147.936 113.367 147.928C113.359 147.92 113.351 147.912 113.344 147.903C113.095 147.667 112.759 147.522 112.39 147.522ZM117.761 145.981C118.031 145.71 118.469 145.71 118.74 145.98L122.566 149.8C122.837 150.07 122.837 150.508 122.567 150.778C122.297 151.049 121.859 151.049 121.589 150.779L117.762 146.96C117.491 146.69 117.491 146.251 117.761 145.981Z" fill="#4D5DF1"/>
<path fill-rule="evenodd" clip-rule="evenodd" d="M149.014 138.82C149.119 138.715 149.262 138.655 149.411 138.655H152.179C152.328 138.655 152.471 138.715 152.577 138.82C152.682 138.926 152.741 139.069 152.741 139.218V139.78H148.849V139.218C148.849 139.069 148.908 138.926 149.014 138.82ZM154.385 139.218V139.78H155.639L155.652 139.78H157.023C157.477 139.78 157.845 140.148 157.845 140.602C157.845 141.056 157.477 141.424 157.023 141.424H156.461V150.29C156.461 150.875 156.229 151.436 155.815 151.849C155.401 152.263 154.84 152.495 154.255 152.495H147.335C146.75 152.495 146.189 152.263 145.776 151.849C145.362 151.436 145.13 150.875 145.13 150.29V141.424H144.567C144.114 141.424 143.746 141.056 143.746 140.602C143.746 140.148 144.114 139.78 144.567 139.78H145.938L145.951 139.78H147.206V139.218C147.206 138.633 147.438 138.072 147.852 137.658C148.265 137.244 148.826 137.012 149.411 137.012H152.179C152.764 137.012 153.325 137.244 153.739 137.658C154.153 138.072 154.385 138.633 154.385 139.218ZM146.773 141.424V150.29C146.773 150.439 146.832 150.582 146.938 150.687C147.043 150.793 147.186 150.852 147.335 150.852H154.255C154.404 150.852 154.547 150.793 154.653 150.687C154.758 150.582 154.817 150.439 154.817 150.29V141.424H146.773ZM152.179 143.24C152.633 143.24 153.001 143.608 153.001 144.062V148.214C153.001 148.667 152.633 149.035 152.179 149.035C151.725 149.035 151.358 148.667 151.358 148.214V144.062C151.358 143.608 151.725 143.24 152.179 143.24ZM150.233 144.062C150.233 143.608 149.865 143.24 149.411 143.24C148.957 143.24 148.589 143.608 148.589 144.062V148.214C148.589 148.667 148.957 149.035 149.411 149.035C149.865 149.035 150.233 148.667 150.233 148.214V144.062Z" fill="#4D5DF1"/>
<path fill-rule="evenodd" clip-rule="evenodd" d="M190.522 139.28C190.202 138.959 189.681 138.959 189.36 139.28C189.039 139.601 189.039 140.121 189.36 140.442C190.503 141.586 191.146 143.137 191.146 144.754C191.146 146.371 190.503 147.922 189.36 149.065C189.039 149.386 189.039 149.906 189.36 150.227C189.681 150.548 190.202 150.548 190.522 150.227C191.974 148.775 192.789 146.807 192.789 144.754C192.789 142.701 191.974 140.732 190.522 139.28ZM188.08 141.723C187.759 141.402 187.238 141.402 186.918 141.723C186.597 142.044 186.596 142.564 186.917 142.885C187.412 143.38 187.69 144.051 187.69 144.75C187.69 145.45 187.412 146.121 186.917 146.615C186.596 146.936 186.597 147.457 186.918 147.778C187.238 148.098 187.759 148.098 188.08 147.777C188.882 146.974 189.333 145.886 189.333 144.75C189.333 143.615 188.882 142.526 188.08 141.723ZM185.179 139.91C185.179 139.594 184.997 139.306 184.713 139.169C184.428 139.032 184.09 139.071 183.843 139.268L180.609 141.856H178.129C177.675 141.856 177.307 142.224 177.307 142.678V146.83C177.307 147.283 177.675 147.651 178.129 147.651H180.609L183.843 150.239C184.09 150.437 184.428 150.475 184.713 150.338C184.997 150.201 185.179 149.913 185.179 149.598V139.91ZM181.41 143.319L183.535 141.619V147.888L181.41 146.188C181.264 146.071 181.083 146.008 180.897 146.008H178.951V143.499H180.897C181.083 143.499 181.264 143.436 181.41 143.319Z" fill="#4D5DF1"/>
<path fill-rule="evenodd" clip-rule="evenodd" d="M216.062 137.149C216.066 136.695 215.701 136.324 215.248 136.32C214.794 136.316 214.423 136.681 214.419 137.135L214.395 139.847L211.684 139.87C211.23 139.874 210.865 140.245 210.869 140.699C210.873 141.153 211.244 141.518 211.698 141.514L214.381 141.49L214.329 147.515L214.329 147.515V147.522C214.329 148.107 214.561 148.668 214.975 149.082C215.389 149.495 215.95 149.728 216.535 149.728H222.633V152.366C222.633 152.82 223.001 153.188 223.455 153.188C223.908 153.188 224.276 152.82 224.276 152.366V149.728H226.914C227.368 149.728 227.736 149.36 227.736 148.906C227.736 148.452 227.368 148.084 226.914 148.084H224.276V141.986C224.276 141.401 224.044 140.84 223.63 140.426C223.217 140.013 222.656 139.78 222.071 139.78V139.78L222.063 139.78L216.039 139.832L216.062 137.149ZM216.025 141.476L215.972 147.525C215.973 147.673 216.032 147.815 216.137 147.92C216.242 148.025 216.385 148.084 216.535 148.084H222.633V141.986C222.633 141.837 222.574 141.694 222.468 141.588C222.363 141.484 222.221 141.424 222.073 141.424L216.025 141.476Z" fill="#4D5DF1"/>
<path fill-rule="evenodd" clip-rule="evenodd" d="M282.404 139.91C282.404 139.599 282.655 139.348 282.966 139.348H288.502C288.813 139.348 289.064 139.599 289.064 139.91V141.856H287.118C285.899 141.856 284.912 142.843 284.912 144.062V146.008H282.966C282.655 146.008 282.404 145.757 282.404 145.446V139.91ZM284.912 147.652H282.966C281.747 147.652 280.76 146.664 280.76 145.446V139.91C280.76 138.691 281.747 137.704 282.966 137.704H288.502C289.72 137.704 290.708 138.691 290.708 139.91V141.856H292.654C293.872 141.856 294.86 142.843 294.86 144.062V149.598C294.86 150.816 293.872 151.803 292.654 151.803H287.118C285.899 151.803 284.912 150.816 284.912 149.598V147.652ZM290.708 143.499H292.654C292.965 143.499 293.216 143.751 293.216 144.062V149.598C293.216 149.908 292.965 150.16 292.654 150.16H287.118C286.807 150.16 286.556 149.908 286.556 149.598V147.652H288.502C289.72 147.652 290.708 146.664 290.708 145.446V143.499ZM289.064 143.499V145.446C289.064 145.757 288.813 146.008 288.502 146.008H286.556V144.062C286.556 143.751 286.807 143.499 287.118 143.499H289.064Z" fill="#4D5DF1"/>
</g>
</g>
<defs>
<filter id="filter0_b_1_1233" x="-42.936" y="-42.936" width="491.813" height="269.326" filterUnits="userSpaceOnUse" color-interpolation-filters="sRGB">
<feFlood flood-opacity="0" result="BackgroundImageFix"/>
<feGaussianBlur in="BackgroundImageFix" stdDeviation="21.468"/>
<feComposite in2="SourceAlpha" operator="in" result="effect1_backgroundBlur_1_1233"/>
<feBlend mode="normal" in="SourceGraphic" in2="effect1_backgroundBlur_1_1233" result="shape"/>
</filter>
<filter id="filter1_b_1_1233" x="-19.7218" y="-19.7218" width="445.384" height="222.897" filterUnits="userSpaceOnUse" color-interpolation-filters="sRGB">
<feFlood flood-opacity="0" result="BackgroundImageFix"/>
<feGaussianBlur in="BackgroundImageFix" stdDeviation="9.86091"/>
<feComposite in2="SourceAlpha" operator="in" result="effect1_backgroundBlur_1_1233"/>
<feBlend mode="normal" in="SourceGraphic" in2="effect1_backgroundBlur_1_1233" result="shape"/>
</filter>
<linearGradient id="paint0_linear_1_1233" x1="166.661" y1="40.8301" x2="166.661" y2="73.6998" gradientUnits="userSpaceOnUse">
<stop stop-color="#FF4C00"/>
<stop offset="1" stop-color="#FF4C00" stop-opacity="0"/>
</linearGradient>
<clipPath id="clip0_1_1233">
<rect width="405" height="183" fill="white"/>
</clipPath>
</defs>
</svg>
