<svg width="240" height="39" viewBox="0 0 240 39" fill="none" xmlns="http://www.w3.org/2000/svg">
<path d="M2.70455 14.1703L5.73295 23.3294H5.85227L8.875 14.1703H11.1932L7.09091 25.8066H4.48864L0.392045 14.1703H2.70455ZM12.6349 25.8066V17.0794H14.6918V25.8066H12.6349ZM13.669 15.8407C13.3433 15.8407 13.063 15.7328 12.8281 15.5169C12.5933 15.2972 12.4759 15.0339 12.4759 14.7271C12.4759 14.4165 12.5933 14.1532 12.8281 13.9373C13.063 13.7176 13.3433 13.6078 13.669 13.6078C13.9986 13.6078 14.2789 13.7176 14.5099 13.9373C14.7448 14.1532 14.8622 14.4165 14.8622 14.7271C14.8622 15.0339 14.7448 15.2972 14.5099 15.5169C14.2789 15.7328 13.9986 15.8407 13.669 15.8407ZM23.7045 19.3862L21.8295 19.5907C21.7765 19.4013 21.6837 19.2233 21.5511 19.0566C21.4223 18.89 21.2481 18.7555 21.0284 18.6532C20.8087 18.551 20.5398 18.4998 20.2216 18.4998C19.7936 18.4998 19.4337 18.5926 19.142 18.7782C18.8542 18.9638 18.7121 19.2044 18.7159 19.4998C18.7121 19.7536 18.8049 19.96 18.9943 20.1191C19.1875 20.2782 19.5057 20.4089 19.9489 20.5112L21.4375 20.8294C22.2633 21.0074 22.8769 21.2896 23.2784 21.676C23.6837 22.0623 23.8883 22.568 23.892 23.193C23.8883 23.7422 23.7273 24.2271 23.4091 24.6475C23.0947 25.0642 22.6572 25.39 22.0966 25.6248C21.536 25.8597 20.892 25.9771 20.1648 25.9771C19.0966 25.9771 18.2367 25.7536 17.5852 25.3066C16.9337 24.8559 16.5455 24.229 16.4205 23.426L18.4261 23.2328C18.517 23.6267 18.7102 23.9241 19.0057 24.1248C19.3011 24.3256 19.6856 24.426 20.1591 24.426C20.6477 24.426 21.0398 24.3256 21.3352 24.1248C21.6345 23.9241 21.7841 23.676 21.7841 23.3805C21.7841 23.1305 21.6875 22.9241 21.4943 22.7612C21.3049 22.5983 21.0095 22.4733 20.608 22.3862L19.1193 22.0737C18.2822 21.8994 17.6629 21.6059 17.2614 21.193C16.8598 20.7763 16.661 20.2498 16.6648 19.6135C16.661 19.0756 16.8068 18.6097 17.1023 18.2157C17.4015 17.818 17.8163 17.5112 18.3466 17.2953C18.8807 17.0756 19.4962 16.9657 20.1932 16.9657C21.2159 16.9657 22.0208 17.1835 22.608 17.6191C23.1989 18.0547 23.5644 18.6438 23.7045 19.3862ZM25.5881 25.8066V17.0794H27.6449V25.8066H25.5881ZM26.6222 15.8407C26.2964 15.8407 26.0161 15.7328 25.7812 15.5169C25.5464 15.2972 25.429 15.0339 25.429 14.7271C25.429 14.4165 25.5464 14.1532 25.7812 13.9373C26.0161 13.7176 26.2964 13.6078 26.6222 13.6078C26.9517 13.6078 27.232 13.7176 27.4631 13.9373C27.6979 14.1532 27.8153 14.4165 27.8153 14.7271C27.8153 15.0339 27.6979 15.2972 27.4631 15.5169C27.232 15.7328 26.9517 15.8407 26.6222 15.8407ZM34.1179 17.0794V18.6703H29.1009V17.0794H34.1179ZM30.3395 14.9885H32.3963V23.1816C32.3963 23.4582 32.438 23.6703 32.5213 23.818C32.6084 23.9619 32.7221 24.0604 32.8622 24.1135C33.0024 24.1665 33.1577 24.193 33.3281 24.193C33.4569 24.193 33.5743 24.1835 33.6804 24.1646C33.7902 24.1457 33.8736 24.1286 33.9304 24.1135L34.277 25.7214C34.1671 25.7593 34.0099 25.801 33.8054 25.8464C33.6046 25.8919 33.3584 25.9184 33.0668 25.926C32.5516 25.9411 32.0876 25.8635 31.6747 25.693C31.2618 25.5188 30.9342 25.2498 30.6918 24.8862C30.4531 24.5225 30.3357 24.068 30.3395 23.5225V14.9885ZM39.8977 25.8066V14.1703H42.0057V19.0964H47.3977V14.1703H49.5114V25.8066H47.3977V20.8635H42.0057V25.8066H39.8977ZM55.5767 25.9771C54.7017 25.9771 53.946 25.7953 53.3097 25.4316C52.6771 25.0642 52.1903 24.5453 51.8494 23.8748C51.5085 23.2006 51.3381 22.407 51.3381 21.4941C51.3381 20.5964 51.5085 19.8085 51.8494 19.1305C52.1941 18.4487 52.6752 17.9184 53.2926 17.5396C53.91 17.157 54.6354 16.9657 55.4688 16.9657C56.0066 16.9657 56.5142 17.0529 56.9915 17.2271C57.4725 17.3975 57.8968 17.6627 58.2642 18.0225C58.6354 18.3824 58.9271 18.8407 59.1392 19.3975C59.3513 19.9506 59.4574 20.6097 59.4574 21.3748V22.0055H52.304V20.6191H57.4858C57.482 20.2252 57.3968 19.8748 57.2301 19.568C57.0634 19.2574 56.8305 19.0131 56.5312 18.835C56.2358 18.657 55.8911 18.568 55.4972 18.568C55.0767 18.568 54.7074 18.6703 54.3892 18.8748C54.071 19.0756 53.8229 19.3407 53.6449 19.6703C53.4706 19.996 53.3816 20.354 53.3778 20.7441V21.9544C53.3778 22.4619 53.4706 22.8975 53.6562 23.2612C53.8419 23.621 54.1013 23.8975 54.4347 24.0907C54.768 24.2801 55.1581 24.3748 55.6051 24.3748C55.9044 24.3748 56.1752 24.3332 56.4176 24.2498C56.66 24.1627 56.8703 24.0358 57.0483 23.8691C57.2263 23.7025 57.3608 23.496 57.4517 23.2498L59.3722 23.4657C59.2509 23.9733 59.0199 24.4165 58.679 24.7953C58.3419 25.1703 57.91 25.4619 57.3835 25.6703C56.857 25.8748 56.2547 25.9771 55.5767 25.9771ZM63.2543 14.1703V25.8066H61.1974V14.1703H63.2543ZM65.3693 29.0794V17.0794H67.392V18.5225H67.5114C67.6174 18.3104 67.767 18.085 67.9602 17.8464C68.1534 17.604 68.4148 17.3975 68.7443 17.2271C69.0739 17.0529 69.4943 16.9657 70.0057 16.9657C70.6799 16.9657 71.2879 17.1381 71.8295 17.4828C72.375 17.8237 72.8068 18.3294 73.125 18.9998C73.447 19.6665 73.608 20.4847 73.608 21.4544C73.608 22.4127 73.4508 23.2271 73.1364 23.8975C72.822 24.568 72.3939 25.0794 71.8523 25.4316C71.3106 25.7839 70.697 25.96 70.0114 25.96C69.5114 25.96 69.0966 25.8767 68.767 25.71C68.4375 25.5434 68.1723 25.3426 67.9716 25.1078C67.7746 24.8691 67.6212 24.6438 67.5114 24.4316H67.4261V29.0794H65.3693ZM67.3864 21.443C67.3864 22.0074 67.4659 22.5017 67.625 22.926C67.7879 23.3502 68.0208 23.6816 68.3239 23.9203C68.6307 24.1551 69.0019 24.2725 69.4375 24.2725C69.892 24.2725 70.2727 24.1513 70.5795 23.9089C70.8864 23.6627 71.1174 23.3275 71.2727 22.9032C71.4318 22.4752 71.5114 21.9885 71.5114 21.443C71.5114 20.9013 71.4337 20.4203 71.2784 19.9998C71.1231 19.5794 70.892 19.2498 70.5852 19.0112C70.2784 18.7725 69.8958 18.6532 69.4375 18.6532C68.9981 18.6532 68.625 18.7688 68.3182 18.9998C68.0114 19.2309 67.7784 19.5547 67.6193 19.9714C67.464 20.3881 67.3864 20.8786 67.3864 21.443ZM89.3892 18.0964H87.2642C87.2036 17.7479 87.0919 17.4392 86.929 17.1703C86.7661 16.8975 86.5634 16.6665 86.321 16.4771C86.0786 16.2877 85.8021 16.1457 85.4915 16.051C85.1847 15.9525 84.8532 15.9032 84.4972 15.9032C83.8646 15.9032 83.304 16.0623 82.8153 16.3805C82.3267 16.6949 81.9441 17.157 81.6676 17.7669C81.3911 18.3729 81.2528 19.1135 81.2528 19.9885C81.2528 20.8786 81.3911 21.6286 81.6676 22.2385C81.9479 22.8445 82.3305 23.3029 82.8153 23.6135C83.304 23.9203 83.8627 24.0737 84.4915 24.0737C84.84 24.0737 85.1657 24.0282 85.4688 23.9373C85.7756 23.8426 86.0502 23.7044 86.2926 23.5225C86.5388 23.3407 86.7453 23.1172 86.9119 22.8521C87.0824 22.5869 87.1998 22.2839 87.2642 21.943L89.3892 21.9544C89.3097 22.5074 89.1373 23.0263 88.8722 23.5112C88.6108 23.996 88.268 24.4241 87.8438 24.7953C87.4195 25.1627 86.9233 25.4506 86.3551 25.6589C85.7869 25.8635 85.1563 25.9657 84.4631 25.9657C83.4403 25.9657 82.5275 25.729 81.7244 25.2555C80.9214 24.782 80.2888 24.0983 79.8267 23.2044C79.3646 22.3104 79.1335 21.2385 79.1335 19.9885C79.1335 18.7347 79.3665 17.6627 79.8324 16.7725C80.2983 15.8786 80.9328 15.1949 81.7358 14.7214C82.5388 14.2479 83.4479 14.0112 84.4631 14.0112C85.1108 14.0112 85.7131 14.1021 86.2699 14.2839C86.8267 14.4657 87.3229 14.7328 87.7585 15.085C88.1941 15.4335 88.5521 15.8616 88.8324 16.3691C89.1165 16.8729 89.3021 17.4487 89.3892 18.0964ZM95.0923 25.9771C94.2173 25.9771 93.4616 25.7953 92.8253 25.4316C92.1927 25.0642 91.706 24.5453 91.3651 23.8748C91.0241 23.2006 90.8537 22.407 90.8537 21.4941C90.8537 20.5964 91.0241 19.8085 91.3651 19.1305C91.7098 18.4487 92.1908 17.9184 92.8082 17.5396C93.4257 17.157 94.151 16.9657 94.9844 16.9657C95.5223 16.9657 96.0298 17.0529 96.5071 17.2271C96.9882 17.3975 97.4124 17.6627 97.7798 18.0225C98.151 18.3824 98.4427 18.8407 98.6548 19.3975C98.867 19.9506 98.973 20.6097 98.973 21.3748V22.0055H91.8196V20.6191H97.0014C96.9976 20.2252 96.9124 19.8748 96.7457 19.568C96.5791 19.2574 96.3461 19.0131 96.0469 18.835C95.7514 18.657 95.4067 18.568 95.0128 18.568C94.5923 18.568 94.223 18.6703 93.9048 18.8748C93.5866 19.0756 93.3385 19.3407 93.1605 19.6703C92.9863 19.996 92.8973 20.354 92.8935 20.7441V21.9544C92.8935 22.4619 92.9863 22.8975 93.1719 23.2612C93.3575 23.621 93.617 23.8975 93.9503 24.0907C94.2836 24.2801 94.6738 24.3748 95.1207 24.3748C95.42 24.3748 95.6908 24.3332 95.9332 24.2498C96.1757 24.1627 96.3859 24.0358 96.5639 23.8691C96.742 23.7025 96.8764 23.496 96.9673 23.2498L98.8878 23.4657C98.7666 23.9733 98.5355 24.4165 98.1946 24.7953C97.8575 25.1703 97.4257 25.4619 96.8991 25.6703C96.3726 25.8748 95.7704 25.9771 95.0923 25.9771ZM102.77 20.693V25.8066H100.713V17.0794H102.679V18.5623H102.781C102.982 18.0737 103.302 17.6854 103.741 17.3975C104.185 17.1097 104.732 16.9657 105.384 16.9657C105.986 16.9657 106.51 17.0945 106.957 17.3521C107.408 17.6097 107.757 17.9828 108.003 18.4714C108.253 18.96 108.376 19.5529 108.372 20.2498V25.8066H106.315V20.568C106.315 19.9847 106.164 19.5282 105.861 19.1987C105.562 18.8691 105.147 18.7044 104.616 18.7044C104.257 18.7044 103.937 18.7839 103.656 18.943C103.38 19.0983 103.162 19.3237 103.003 19.6191C102.848 19.9146 102.77 20.2725 102.77 20.693ZM114.821 17.0794V18.6703H109.804V17.0794H114.821ZM111.043 14.9885H113.099V23.1816C113.099 23.4582 113.141 23.6703 113.224 23.818C113.312 23.9619 113.425 24.0604 113.565 24.1135C113.705 24.1665 113.861 24.193 114.031 24.193C114.16 24.193 114.277 24.1835 114.384 24.1646C114.493 24.1457 114.577 24.1286 114.634 24.1135L114.98 25.7214C114.87 25.7593 114.713 25.801 114.509 25.8464C114.308 25.8919 114.062 25.9184 113.77 25.926C113.255 25.9411 112.791 25.8635 112.378 25.693C111.965 25.5188 111.637 25.2498 111.395 24.8862C111.156 24.5225 111.039 24.068 111.043 23.5225V14.9885ZM120.311 25.9771C119.436 25.9771 118.68 25.7953 118.044 25.4316C117.411 25.0642 116.925 24.5453 116.584 23.8748C116.243 23.2006 116.072 22.407 116.072 21.4941C116.072 20.5964 116.243 19.8085 116.584 19.1305C116.929 18.4487 117.41 17.9184 118.027 17.5396C118.644 17.157 119.37 16.9657 120.203 16.9657C120.741 16.9657 121.249 17.0529 121.726 17.2271C122.207 17.3975 122.631 17.6627 122.999 18.0225C123.37 18.3824 123.661 18.8407 123.874 19.3975C124.086 19.9506 124.192 20.6097 124.192 21.3748V22.0055H117.038V20.6191H122.22C122.216 20.2252 122.131 19.8748 121.964 19.568C121.798 19.2574 121.565 19.0131 121.266 18.835C120.97 18.657 120.625 18.568 120.232 18.568C119.811 18.568 119.442 18.6703 119.124 18.8748C118.805 19.0756 118.557 19.3407 118.379 19.6703C118.205 19.996 118.116 20.354 118.112 20.7441V21.9544C118.112 22.4619 118.205 22.8975 118.391 23.2612C118.576 23.621 118.836 23.8975 119.169 24.0907C119.502 24.2801 119.893 24.3748 120.339 24.3748C120.639 24.3748 120.91 24.3332 121.152 24.2498C121.394 24.1627 121.605 24.0358 121.783 23.8691C121.961 23.7025 122.095 23.496 122.186 23.2498L124.107 23.4657C123.985 23.9733 123.754 24.4165 123.413 24.7953C123.076 25.1703 122.644 25.4619 122.118 25.6703C121.591 25.8748 120.989 25.9771 120.311 25.9771ZM125.932 25.8066V17.0794H127.926V18.5339H128.017C128.176 18.0301 128.449 17.6419 128.835 17.3691C129.225 17.0926 129.67 16.9544 130.17 16.9544C130.284 16.9544 130.411 16.96 130.551 16.9714C130.695 16.979 130.814 16.9922 130.909 17.0112V18.9032C130.822 18.8729 130.684 18.8464 130.494 18.8237C130.309 18.7972 130.129 18.7839 129.955 18.7839C129.58 18.7839 129.242 18.8654 128.943 19.0282C128.648 19.1873 128.415 19.4089 128.244 19.693C128.074 19.9771 127.989 20.3047 127.989 20.676V25.8066H125.932ZM143.369 26.2271L142.199 25.068L145.705 21.5623H137.188V19.8691H145.705L142.199 16.3691L143.369 15.2044L148.881 20.7157L143.369 26.2271Z" fill="#1F43FD"/>
</svg>
