<svg width="31" height="24" viewBox="0 0 31 24" fill="none" xmlns="http://www.w3.org/2000/svg">
<path d="M0.873535 23.7828V17.1916C0.873535 15.2961 1.22894 13.3253 1.93975 11.279C2.6721 9.21119 3.66292 7.26185 4.91223 5.43097C6.18307 3.57856 7.60468 2.01694 9.17708 0.746094L14.6051 4.26783C13.3342 6.18486 12.268 8.18805 11.4064 10.2774C10.5664 12.3452 10.1571 14.6284 10.1787 17.127V23.7828H0.873535ZM17.2545 23.7828V17.1916C17.2545 15.2961 17.6099 13.3253 18.3207 11.279C19.053 9.21119 20.0438 7.26185 21.2931 5.43097C22.564 3.57856 23.9856 2.01694 25.558 0.746094L30.986 4.26783C29.7152 6.18486 28.649 8.18805 27.7874 10.2774C26.9473 12.3452 26.5381 14.6284 26.5596 17.127V23.7828H17.2545Z" fill="#D3D0FF" fill-opacity="0.6"/>
</svg>
